<?xml version="1.0" encoding="UTF-8" standalone="no"?>
<svg
   xmlns:dc="http://purl.org/dc/elements/1.1/"
   xmlns:cc="http://creativecommons.org/ns#"
   xmlns:rdf="http://www.w3.org/1999/02/22-rdf-syntax-ns#"
   xmlns:svg="http://www.w3.org/2000/svg"
   xmlns="http://www.w3.org/2000/svg"
   xmlns:sodipodi="http://sodipodi.sourceforge.net/DTD/sodipodi-0.dtd"
   xmlns:inkscape="http://www.inkscape.org/namespaces/inkscape"
   version="1.1"
   width="841.88977"
   height="595.27557"
   id="svg26"
   viewBox="0 0 841.88977 595.27557"
   sodipodi:docname="Fresco-GO - Curvas.cdr"
   inkscape:version="0.92.3 (2405546, 2018-03-11)">
  <metadata
     id="metadata32">
    <rdf:RDF>
      <cc:Work
         rdf:about="">
        <dc:format>image/svg+xml</dc:format>
        <dc:type
           rdf:resource="http://purl.org/dc/dcmitype/StillImage" />
        <dc:title></dc:title>
      </cc:Work>
    </rdf:RDF>
  </metadata>
  <defs
     id="defs30" />
  <sodipodi:namedview
     pagecolor="#ffffff"
     bordercolor="#666666"
     borderopacity="1"
     objecttolerance="10"
     gridtolerance="10"
     guidetolerance="10"
     inkscape:pageopacity="0"
     inkscape:pageshadow="2"
     inkscape:window-width="1916"
     inkscape:window-height="1161"
     id="namedview28"
     showgrid="false"
     inkscape:zoom="1.5858201"
     inkscape:cx="420.94489"
     inkscape:cy="297.63779"
     inkscape:window-x="0"
     inkscape:window-y="18"
     inkscape:window-maximized="0"
     inkscape:current-layer="svg26" />
  <g
     id="Layer1000">
    <defs
       id="defs7">
      <linearGradient
         id="grad1">
        <stop
           offset="0%"
           stop-color="#21c1db"
           stop-opacity="1.0000"
           id="stop2" />
        <stop
           offset="100%"
           stop-color="#ffffff"
           stop-opacity="1.0000"
           id="stop4" />
      </linearGradient>
    </defs>
    <path
       d="m 274.9467,329.6109 h 113.516 17.4713 c 5.3589,0 9.7433,-4.3843 9.7433,-9.7432 v -3e-4 c 0,-5.3589 -4.3844,-9.7433 -9.7433,-9.7433 H 283.7115 c -5.3484,-0.0124 -9.7206,-4.3917 -9.7206,-9.7429 v -3e-4 c 0,-5.3589 4.3843,-9.7433 9.7432,-9.7433 h 77.7082 2.8675 l -0.2271,-0.3662 c 4.0865,-1.1585 7.1028,-4.9323 7.1028,-9.377 v -3e-4 c 0,-5.3589 -4.3843,-9.7432 -9.7432,-9.7432 h -56.253 c -5.3484,-0.0125 -9.7206,-4.3918 -9.7206,-9.743 v -3e-4 c 0,-5.3589 4.3844,-9.7432 9.7433,-9.7432 h 61.6728 12.7375 c 5.3589,0 9.7432,-4.3847 9.7432,-9.7433 v -2e-4 c 0,-5.3589 -4.3843,-9.7433 -9.7432,-9.7433 h -19.4684 -129.166 c -5.3589,0 -9.7432,-4.3843 -9.7432,-9.7432 v -3e-4 c 0,-5.3586 4.3843,-9.7433 9.7432,-9.7433 h 0.1154 122.3198 46.4099 c 5.3589,0 9.7433,-4.3843 9.7433,-9.7432 v -3e-4 c 0,-5.3589 -4.3844,-9.7432 -9.7433,-9.7432 H 293.345 c -5.3484,-0.0125 -9.7206,-4.3918 -9.7206,-9.743 v -3e-4 c 0,-5.3589 4.3844,-9.7432 9.7433,-9.7432 h 46.0077 5.6137 c 5.3589,0 9.7433,-4.3844 9.7433,-9.7433 v -3e-4 c 0,-5.3589 -4.3844,-9.7432 -9.7433,-9.7432 h -89.3865 c -5.3485,-0.0125 -9.7206,-4.3917 -9.7206,-9.743 v -2e-4 c 0,-5.3589 4.3843,-9.7433 9.7432,-9.7433 h 97.6658 8.0257 c 5.3589,0 9.7432,-4.3846 9.7432,-9.7432 v -3e-4 c 0,-5.3589 -4.3843,-9.7433 -9.7432,-9.7433 h -8.2911 -14.5068 c -5.3589,0 -9.7433,-4.3843 -9.7433,-9.7432 v -3e-4 c 0,-5.3586 4.3844,-9.7432 9.7433,-9.7432 h 20.224 30.2052 c 5.3589,0 9.7432,-4.3844 9.7432,-9.7433 v -3e-4 c 0,-5.3589 -4.3843,-9.7432 -9.7432,-9.7432 H 274.9241 c -5.3484,-0.0125 -9.7206,-4.3917 -9.7206,-9.743 v -2e-4 c 0,-5.3589 4.3843,-9.7433 9.7432,-9.7433 h 102.1482 66.5816 53.3962 c 80.7642,0 146.8437,65.7675 146.8437,146.1504 v 0 c 0,80.3829 -66.0804,146.1503 -146.8437,146.1503 h -96.5333 l -3e-4,-5e-4 H 274.9467 c -5.3589,0 -9.7432,-4.3844 -9.7432,-9.7433 v -3e-4 c 0,-5.3586 4.3843,-9.7432 9.7432,-9.7432 z"
       style="fill:url(#grad1)"
       id="path9"
       inkscape:connector-curvature="0" />
    <path
       d="m 245.6365,290.6376 h 10.1945 c 5.3589,0 9.7433,4.385 9.7433,9.7433 v 3e-4 c 0,5.3583 -4.3849,9.7432 -9.7433,9.7432 h -10.1945 c -5.3583,0 -9.7432,-4.3843 -9.7432,-9.7432 v -3e-4 c 0,-5.3589 4.3843,-9.7433 9.7432,-9.7433 z"
       style="fill:#ffb600;fill-rule:evenodd"
       id="path11"
       inkscape:connector-curvature="0" />
    <path
       d="m 309.2933,95.7552 c 5.576,0 10.0959,4.4186 10.0959,9.8694 0,5.4507 -4.5199,9.8694 -10.0959,9.8694 -5.576,0 -10.0959,-4.4187 -10.0959,-9.8694 0,-5.4508 4.5199,-9.8694 10.0959,-9.8694 z"
       style="fill:#ffb600;fill-rule:evenodd"
       id="path13"
       inkscape:connector-curvature="0" />
    <path
       d="m 275.7115,252.3747 c 5.5761,0 10.0959,4.4187 10.0959,9.8694 0,5.4508 -4.5198,9.8694 -10.0959,9.8694 -5.576,0 -10.0958,-4.4186 -10.0958,-9.8694 0,-5.4507 4.5198,-9.8694 10.0958,-9.8694 z"
       style="fill:#ffb600;fill-rule:evenodd"
       id="path15"
       inkscape:connector-curvature="0" />
  </g>
  <g
     id="Layer1001">
    <path
       d="m 96.2986,423.6715 -3.3596,16.7979 h 40.8744 l -5.0394,24.9165 H 88.0396 l -6.2992,31.3557 H 48.7052 L 68.3025,398.755 h 79.649 l -5.0394,24.9165 z m 83.7085,4.3396 c 6.2526,-6.1591 15.2113,-9.2387 26.8764,-9.2387 l -5.5993,27.9961 c -2.3329,-0.3733 -4.6193,-0.5598 -6.859,-0.5598 -5.4127,0 -9.682,1.1897 -12.8083,3.5693 -3.1263,2.3797 -5.2492,6.2292 -6.3692,11.5484 l -7.139,35.4152 h -31.6355 l 15.2577,-76.5694 h 29.816 z m 109.4649,24.4967 c 0,4.1993 -0.5598,8.6321 -1.6798,13.2982 h -53.6125 c 0.6531,3.1728 2.1929,5.4592 4.6194,6.859 2.4261,1.3997 5.7858,2.0996 10.0785,2.0996 6.3457,0 11.8985,-1.7731 16.6578,-5.3192 l 13.1582,19.1772 c -9.3322,6.3459 -20.484,9.5188 -33.4554,9.5188 -8.3058,0 -15.6546,-1.4466 -22.047,-4.3393 -6.3924,-2.8931 -11.3386,-6.999 -14.8379,-12.3183 -3.4997,-5.3195 -5.2495,-11.5718 -5.2495,-18.7577 0,-8.3987 1.9831,-15.9344 5.9493,-22.6068 3.966,-6.6722 9.542,-11.8982 16.7276,-15.6779 7.1858,-3.7794 15.4445,-5.669 24.7767,-5.669 8.0255,0 14.978,1.423 20.8571,4.2693 5.8793,2.8462 10.3586,6.8125 13.4382,11.8984 3.0796,5.0859 4.6193,10.9417 4.6193,17.5677 z m -40.3143,-12.1785 c -3.4529,0 -6.3227,0.9099 -8.6088,2.7298 -2.2864,1.8195 -3.9895,4.316 -5.1095,7.4888 h 25.0566 c 0,-3.1728 -1.0264,-5.6693 -3.0796,-7.4888 -2.0531,-1.8199 -4.8061,-2.7298 -8.2587,-2.7298 z m 73.0698,57.8121 c -6.6257,0 -13.0181,-0.6531 -19.1772,-1.9596 -6.1594,-1.3065 -10.9653,-2.9863 -14.4182,-5.0395 l 10.9185,-21.5569 c 3.6394,2.2397 7.8622,3.966 12.6683,5.1792 4.8059,1.2132 9.4488,1.8198 13.9281,1.8198 6.2523,0 9.3787,-1.2132 9.3787,-3.6396 0,-1.0265 -0.8167,-1.7964 -2.4497,-2.3097 -1.6331,-0.5131 -4.2228,-1.0032 -7.7689,-1.4698 -5.5058,-0.8399 -10.1719,-1.8431 -13.9981,-3.0095 -3.8262,-1.1665 -7.1855,-3.2196 -10.0786,-6.1591 -2.893,-2.9396 -4.3395,-7.0223 -4.3395,-12.2483 0,-9.4254 4.013,-16.611 12.0384,-21.5572 8.0255,-4.9458 18.3841,-7.4188 31.0757,-7.4188 5.5993,0 10.9885,0.4898 16.1679,1.4698 5.1792,0.9799 9.7753,2.4029 13.788,4.2692 l -10.9184,21.5572 c -6.6257,-3.8262 -14.2314,-5.7393 -22.817,-5.7393 -3.3596,0 -5.809,0.3733 -7.3488,1.12 -1.5398,0.7464 -2.3096,1.633 -2.3096,2.6595 0,1.0267 0.7931,1.7966 2.3794,2.3096 1.5865,0.5134 4.2927,1.0967 8.1189,1.7499 5.4128,0.8399 10.0086,1.843 13.788,3.0095 3.7798,1.1665 7.0926,3.2196 9.9389,6.1591 2.8463,2.9398 4.2692,6.9758 4.2692,12.1085 0,6.1591 -1.8895,11.4083 -5.669,15.7479 -3.7797,4.3392 -8.9121,7.5821 -15.398,9.7285 -6.4857,2.1464 -13.7416,3.2196 -21.767,3.2196 z m 92.2473,0 c -8.3055,0 -15.6078,-1.4698 -21.907,-4.4093 -6.2991,-2.9396 -11.175,-7.0691 -14.6279,-12.3883 -3.4529,-5.3195 -5.1792,-11.5251 -5.1792,-18.6177 0,-8.3055 2.0529,-15.7943 6.1591,-22.4668 4.106,-6.6725 9.8453,-11.9217 17.2177,-15.7479 7.3723,-3.8259 15.6778,-5.739 24.9165,-5.739 9.0522,0 16.9608,2.0064 23.7269,6.0191 6.7657,4.0127 11.5015,9.472 14.2078,16.3777 l -26.8762,12.3183 c -2.4264,-6.5325 -6.6257,-9.7986 -12.5983,-9.7986 -4.2928,0 -7.8156,1.5863 -10.5687,4.7594 -2.7527,3.1728 -4.1292,7.2788 -4.1292,12.3183 0,3.7329 1.0497,6.7424 3.1496,9.0286 2.0996,2.2864 5.0624,3.4296 8.8886,3.4296 3.1728,0 5.9026,-0.7699 8.189,-2.3097 2.2861,-1.5397 4.316,-4.0359 6.0891,-7.4888 l 23.0967,13.4379 c -3.8259,6.8125 -9.1687,12.0617 -16.0277,15.7479 -6.859,3.6862 -14.7679,5.5293 -23.7268,5.5293 z m 85.1083,0 c -8.3988,0 -15.7244,-1.4698 -21.9768,-4.4093 -6.2526,-2.9396 -11.082,-7.0691 -14.4881,-12.3883 -3.4061,-5.3195 -5.1092,-11.5251 -5.1092,-18.6177 0,-8.3055 2.0529,-15.7943 6.1591,-22.4668 4.106,-6.6725 9.7753,-11.9217 17.0076,-15.7479 7.2323,-3.8259 15.4213,-5.739 24.5668,-5.739 8.3987,0 15.7243,1.4698 21.9767,4.4093 6.2526,2.9395 11.082,7.069 14.4881,12.3883 3.4061,5.3192 5.1092,11.5251 5.1092,18.6173 0,8.3056 -2.0528,15.7947 -6.1591,22.4672 -4.106,6.6721 -9.7753,11.9216 -17.0076,15.7478 -7.2323,3.826 -15.4213,5.7391 -24.5667,5.7391 z m 1.8198,-24.9166 c 4.1063,0 7.4424,-1.5865 10.0086,-4.7594 2.5665,-3.1728 3.8494,-7.4188 3.8494,-12.7383 0,-3.6394 -1.0032,-6.5557 -3.0095,-8.7485 -2.0064,-2.1932 -4.7826,-3.2897 -8.3288,-3.2897 -4.1063,0 -7.4423,1.5863 -10.0086,4.7594 -2.5664,3.1728 -3.8494,7.4188 -3.8494,12.7381 0,3.6396 1.0032,6.5559 3.0095,8.7488 2.0064,2.1932 4.7827,3.2896 8.3288,3.2896 z"
       style="fill:#3598db;fill-rule:evenodd"
       id="path18"
       inkscape:connector-curvature="0" />
    <g
       id="Layer1002">
      <path
         d="m 646.9084,398.3587 v -0.119 c 0,-0.7147 4.1672,-1.548 4.5244,-1.6671 v -0.1191 c 0,-0.2381 0.2381,-0.4762 0.4762,-0.5952 0.2381,-1.548 10.0015,-3.572 12.3828,-4.2863 0.2382,-0.1191 0.8334,-0.2381 0.8334,-0.5953 0.3572,-0.1193 0.8334,-0.4765 0.9525,-0.8336 1.667,-0.2382 3.81,-0.4763 5.358,-1.0715 l 0.4762,-0.5953 -0.3571,-0.8334 c -4.6437,1.3096 -10.8349,3.81 -15.5977,3.81 l -11.9063,3.0958 -0.3572,-0.1194 c -0.9524,0 -2.3814,0.7146 -3.3338,0.9527 -0.8334,0.2382 -6.3105,0.7144 -6.0721,1.7859 -3.0957,1.667 -7.5011,2.7385 -10.9539,4.2862 l -0.4765,-0.3571 c 0,-0.1191 0,-0.3572 -0.2382,-0.3572 -0.3571,0 -0.8333,0.3572 -1.0714,0.5953 -0.3572,0 -0.7144,0.119 -0.9525,0.3572 -0.8334,0.5955 -1.7861,1.3098 -2.7385,1.4289 -0.4763,0.4762 -1.0715,0.9524 -1.6668,0.9524 -0.1191,0.3572 -0.5956,0.4763 -0.9527,0.4763 -0.1191,0.3571 -0.5953,0.3571 -0.8334,0.3571 -0.1191,0.3572 -0.5953,0.4762 -0.9525,0.4762 l -0.7143,0.7147 c -0.5953,0 -2.2623,0.3571 -2.2623,1.0715 -1.0715,0 -1.0715,0.9524 -2.024,0.9524 -0.5955,0.4762 -1.1908,0.9524 -1.7861,1.3099 -0.119,0.3572 -0.5952,0.4762 -0.9524,0.4762 l -0.7143,0.7143 v 0.1191 c -0.1191,0.119 -0.4765,0 -0.5956,0.2381 l -1.1906,0.4762 -1.1905,1.429 -0.8334,0.2381 c 0,0 0,-0.2381 -0.1193,-0.2381 -0.2381,0 -0.3572,0.4762 -0.4762,0.5952 v 0.1191 c 0,0.3572 -0.4763,0.4762 -0.7144,0.4762 l -0.3571,0.9525 c -0.1191,0.2381 -1.0715,0.5952 -1.4287,1.3096 h -0.2381 c -0.3572,0 -0.5956,0.119 -0.5956,0.4765 -0.8334,0.8334 -1.9049,1.3096 -2.7382,2.262 h -0.2382 c -0.3571,0 -0.5955,0.1191 -0.5955,0.4762 -0.8334,0 -1.4287,1.1909 -1.9049,1.7861 -0.4762,0 -0.3572,0.2382 -0.3572,0.5953 0,0.2381 -0.2381,0.3572 -0.4762,0.3572 0,0.5953 -0.4762,0.5953 -0.9527,0.4762 0,1.0715 -1.0715,0.7143 -1.7858,0.5953 l -1.9052,1.667 c -0.3572,0.5953 -1.0715,1.7859 -1.7858,1.7859 0,0.4762 -0.4762,0.7146 -0.4762,1.3099 l -0.8334,0.4762 c 0,0.4762 -1.7861,2.7385 -2.0242,2.7385 -0.5953,0 -0.1191,1.1906 -1.1906,1.0715 l -1.9052,1.6668 c 0,0.9527 -0.8334,1.1908 -0.8334,2.1433 l -0.5952,0.119 c -1.548,1.4287 -3.3339,3.691 -4.4054,5.4768 0,1.429 -2.0242,2.1433 -2.3813,3.8101 -0.7144,0.4765 -1.7861,1.548 -1.7861,2.5004 l -0.8334,0.5953 c 0,0.5953 -0.4763,0.8337 -0.4763,1.429 -0.3571,0.3571 -0.4762,0.8333 -0.4762,1.3096 -0.4762,0 -0.4762,0.119 -0.4762,0.4762 0,0.2381 -0.119,0.3571 -0.3572,0.3571 l -0.9524,2.5005 c -0.3574,0.3572 -0.4765,0.7143 -0.4765,1.1905 -0.4762,0 -0.4762,0.2381 -0.4762,0.5953 0,0.2381 -0.1191,0.3575 -0.3572,0.3575 0,0.5952 -0.3572,2.6192 -1.0715,2.6192 0,0.9527 -0.8334,1.667 -0.8334,2.6195 -0.5955,0.7143 -0.8336,1.7858 -0.9527,2.7385 l -0.3572,0.4762 c 0,0.7144 0.2381,2.143 -0.4762,2.7386 l -0.4762,1.0715 c 0,1.9049 -0.4762,3.5719 -0.4762,5.3578 -1.0715,1.0717 -0.4762,9.049 -0.4762,10.7158 0,1.0717 0.9524,1.1908 0.9524,2.5004 0,0.4762 -0.2381,2.0239 0.4762,2.1433 0.2381,0.8334 0.5953,5.2387 2.1433,5.2387 l 0.9524,0.9524 c 0.7144,0 3.0958,3.691 4.1672,3.691 l 1.1906,0.8334 c 0.8337,0 1.4289,0.9527 1.9052,1.429 0.3571,0 0.9524,0 1.3096,0.3571 0.5955,0 0.5955,0.4762 1.0717,0.4762 l 0.9525,0.4763 c 2.5004,0 3.3338,1.7861 5.2387,0.9524 0.2381,0.2384 1.0718,0.9527 1.0718,0.1191 1.3096,-0.4763 0.4762,0.7146 1.4286,0.7146 0.2382,0 0.3572,0.119 0.3572,0.3571 l 1.1906,0.5953 c 2.3813,0 5.4771,0.4762 8.0966,0.4762 0.4762,0 1.3096,-0.2381 1.6667,-0.4762 h 2.2624 c 0,-0.5953 0.7143,-0.3572 1.0715,-0.3572 0.2381,0 0.3571,-0.119 0.3571,-0.3571 l 0.8334,-0.5953 h 0.5953 c 0.3574,0 1.3099,0 1.3099,-0.4765 0.5952,-0.8334 1.9049,-0.1191 2.5004,-0.9524 h 0.9525 l 0.3571,-0.4763 c 1.4287,0 0.4762,-1.3096 2.7386,-1.3096 0.4762,0 1.1905,0 1.1905,-0.5952 l 0.4762,-0.7147 1.7862,-0.9524 c 0.7143,0 1.7858,-0.4762 1.7858,-1.3096 2.1433,-1.0718 4.1672,-2.5004 5.9533,-4.0482 0.3572,0 0.4762,-0.4762 0.4762,-0.7146 l 0.4762,-0.3571 c 0.4763,0 0.3572,-0.4763 0.8334,-0.4763 l 1.7861,-1.5477 -0.8336,-0.9524 0.8336,-0.5956 1.7859,-1.4286 c 0.2381,-0.1191 1.3099,-0.5953 1.3099,-0.8334 0,-0.1191 -0.1194,-0.1191 -0.1194,-0.1191 -0.119,-0.119 -0.2381,-0.4762 -0.4762,-0.4762 -0.1191,0 -0.1191,0.4762 -0.1191,0.4762 l -2.0239,0.9525 -0.7143,0.8333 h -0.2384 c -0.3572,0 -0.7144,0.1191 -0.7144,0.4763 -0.119,0.2381 -0.3571,0.5952 -0.7143,0.5952 -0.119,0 -0.119,-0.3571 -0.119,-0.4762 0.3571,-0.4762 0.8333,-1.4286 1.5477,-1.4286 l 0.7146,-0.9525 h 0.2381 c 0.3572,0 0.5953,-0.119 0.5953,-0.4762 0.3571,-0.3574 1.0715,-0.3574 1.5477,-0.3574 l 1.667,-0.7144 c 0.3572,-0.3571 0.9525,-1.0715 1.5478,-1.0715 0.3571,0 0.3571,0.3572 0.3571,0.5953 -0.2381,0.3572 -0.7143,0.7143 -0.5952,1.1906 l -0.5953,0.3574 -0.4762,-0.2381 c -1.1906,1.5477 -2.7386,4.1672 -4.1673,5.2387 l 0.2382,0.2381 -0.1191,0.1191 h -0.5953 l -0.119,0.5952 c -0.5956,0.3572 -1.1909,0.9525 -1.6671,1.429 l -1.0715,0.3571 -0.119,0.2382 c 0,0.5952 1.0715,0.5952 1.4286,0.5952 l 0.2381,0.4763 c -0.119,0.119 -0.3571,0.4762 -0.3571,0.5952 l 0.119,0.1191 0.9525,-1.0715 -0.8334,-0.2381 0.119,-0.2381 c 0.7144,0 1.0718,-0.4763 1.7861,-0.4763 l -0.4762,0.5953 c 0.2381,0.2381 -0.2381,0.5953 -0.3574,0.7144 l -0.1191,0.9524 c -0.8334,0.7146 -1.9049,2.8576 -2.6192,3.691 l 0.1191,0.2381 c 0,0.7146 -1.429,1.548 -1.1909,2.0242 -0.3571,0.3572 -2.262,3.572 -2.262,4.0482 0.119,0 0.2381,-0.1191 0.3571,-0.2381 l 0.2382,-0.8334 2.0242,-1.7861 c 0.119,-0.7144 0.7143,-1.3096 1.1905,-1.7859 -0.119,-0.2381 0.3572,-0.4762 0.5953,-0.4762 l 0.7143,-0.5955 v -0.4763 c 0.4763,-0.5952 1.1909,-1.7858 1.3099,-2.6192 l 1.0715,-0.7146 -0.8334,2.0242 c 0.1191,0.5953 -0.7146,1.1906 -0.3571,1.3096 l -0.4765,0.7147 v 0.119 l -0.7144,0.4762 -0.119,0.8334 c -0.5953,0.8334 -0.9525,1.9049 -1.5477,2.7386 l -0.8334,0.2381 c -0.1191,0.4762 -0.4765,0.9524 -0.8337,1.1905 v 0.2381 l -0.4762,0.3572 c -0.1191,-0.119 -0.3572,-0.3572 -0.5953,-0.3572 -0.4762,0 -1.1905,0.4763 -1.1905,0.9525 0,0.4765 -1.3099,1.0718 -0.1191,1.0718 -0.4762,0.4762 -0.5953,1.1905 -1.1908,1.5477 0,0.3571 -0.4762,0.7143 -0.7144,0.8334 l 0.2382,0.2381 c 0,0.2381 -0.5953,0.119 -0.7144,0.119 l -0.119,0.2384 c 0,0.1191 0.5952,0.1191 0.7143,0.1191 h 0.3572 c 0.4762,-0.3575 0.5952,-1.0718 1.0717,-1.429 0.1191,-0.3571 0.2382,-0.8334 0.4763,-1.0715 l 0.119,-0.5952 c 0.1191,0.4762 0.5953,-0.3572 0.7143,-0.2381 l -0.119,0.2381 c 0,0.2381 0.3572,-0.1191 0.3572,-0.1191 l 0.3571,-0.119 c 0,0.3571 -0.4762,0.5952 -0.7143,0.8333 l -0.1191,0.3572 c -0.119,0.1191 -1.548,1.4287 -1.0715,1.4287 l -1.0717,1.4289 c -0.1191,0.4762 -0.5953,0.9525 -0.9525,1.3096 -0.2381,0.3572 -0.3571,0.8334 -0.3571,1.3096 -0.8334,0.8337 -1.4287,2.1433 -2.1433,3.0957 l 0.119,0.2381 c 0,1.3099 -2.8573,3.2148 -2.8573,4.8819 l 0.3572,-0.1191 0.119,-0.7146 1.6668,-1.4287 c 0.1191,-0.3571 0.9524,-1.9048 1.429,-1.9048 l 0.5952,-0.4765 v -0.3572 l 0.9525,-1.5477 0.119,-0.5953 0.9525,-0.5953 -0.7144,1.6668 v 0.3572 l -0.7143,1.3096 0.1191,0.2384 -0.5953,0.2381 0.119,0.3571 c 0,0.2381 -0.119,0.5953 -0.3571,0.7144 l 0.119,0.4762 -1.0718,0.9524 0.1191,0.5953 c 0,0.7146 -1.1905,2.1433 -1.7858,2.5004 v 0.5953 c -0.4762,0.3572 -1.5477,2.0242 -1.7859,2.5005 l 0.3572,0.8333 c -0.2381,0.4763 -0.8337,1.1909 -0.8337,1.6671 l -0.9524,1.6668 0.1191,0.2381 c 0,0.4762 -0.5953,0.9524 -0.9525,1.1908 l -0.2381,0.7144 c 0.1191,0.119 0.2381,0.2381 0.3572,0.2381 0.3571,0 0.4762,-0.4763 0.7143,-0.7144 l 0.1191,-0.4765 c 1.3098,-0.9524 1.667,-2.5001 2.8576,-3.4526 0.2381,-0.4765 0.3571,-0.9527 0.4762,-1.4289 0.2381,-0.2381 1.0715,-1.1906 1.4286,-1.1906 0.3575,0 -0.2381,1.0715 -0.2381,1.1906 l 0.5956,0.3571 1.4287,-0.3571 -0.2382,0.9524 -0.4762,0.4765 c 0,0.2381 -0.4762,0.5953 -0.5952,0.7144 l -0.1191,0.9524 c -0.7146,1.1906 -1.548,3.0957 -2.0242,4.4053 h 0.119 c 0.7144,0 1.0715,-2.143 1.7861,-2.5004 0.2382,-0.2381 0.5953,-0.7143 0.3572,-1.0715 0.4762,-0.3572 0.7143,-1.1906 1.0715,-1.3096 l 0.1191,0.3571 -0.9525,1.9049 c -0.4762,0.3575 -0.5953,0.7146 -0.3571,1.3099 l -0.8337,1.5477 0.119,0.2381 c 0,0.2382 -0.5952,0.8337 -0.8333,1.0718 l -0.4763,1.4287 c -0.119,0.119 -0.3571,0.3572 -0.3571,0.5953 l 0.119,0.2381 1.1906,-0.8334 0.4762,-0.7143 0.119,-0.7144 c 0.4766,-1.1908 1.6671,-1.9051 2.1433,-3.0957 0,-0.119 0.8334,-1.0718 1.0715,-1.4289 l -0.119,0.5955 c -0.3572,0.1191 -0.4763,0.4762 -0.3572,0.8334 -0.3572,0.7143 -2.3811,3.9291 -2.143,4.1672 -0.4765,0.5953 -0.4765,1.3096 -1.0718,1.9049 l -0.119,0.4765 0.119,0.1191 c 0.7146,0 1.0718,-0.9528 1.1909,-1.429 0.4762,-0.3571 1.3096,-1.6668 1.5477,-2.143 l 0.3571,-0.2381 c 1.548,-2.3814 2.3814,-5.7152 4.8816,-7.382 0.1193,-0.2384 0.3574,-0.5955 0.3574,-0.8336 l 1.3096,-1.0715 v -0.5953 c 0.1191,-0.1191 0.2382,-0.4762 0.2382,-0.5953 0.7143,-0.3572 1.6667,-1.7861 2.1432,-2.5004 0,-0.2381 0.3572,-0.4762 0.4762,-0.5953 l 1.3097,-2.2623 c 0,0 0.5952,-0.3572 0.4762,-0.4763 v -0.119 c 0,-0.2381 0.2381,-0.5953 0.4762,-0.7143 l 0.2381,-0.9525 c 0.4765,-0.5955 1.0718,-1.3099 1.4289,-2.0242 0,-0.3572 0.2382,-0.7143 0.4763,-0.9524 l -0.1191,-0.2382 c 0.5953,-0.5952 0.9525,-1.1908 1.7858,-1.667 0.1191,-0.2381 0.3572,-0.5953 0.3572,-0.9524 l 1.6671,-1.3097 v -0.7146 c 0.8333,-1.3096 1.9048,-2.6192 2.8576,-3.81 0,-0.3572 0.3571,-0.5953 0.5952,-0.7143 0.4763,-0.9525 0.9525,-2.024 1.6668,-2.8577 0.2381,-0.119 0.4762,-0.3571 0.4762,-0.5952 0,-0.3572 0.3575,-0.7144 0.5956,-0.9525 l 0.3572,-1.1905 c 0.5952,-0.5953 1.4286,-1.548 1.6667,-2.3814 0.3572,-0.2381 2.5005,-4.6434 2.5005,-4.7625 0.2381,-0.1191 0.8334,-0.5953 0.7143,-0.9527 0.1191,-0.3572 3.8101,-5.5959 4.6434,-6.6674 0,-0.4762 0.9528,-2.3814 1.1909,-2.7385 0.2381,-0.1191 0.2381,-0.2382 0.2381,-0.4763 0,-0.8333 0.8334,-1.667 1.5477,-2.0242 0,-0.4762 0.3572,-0.8334 0.7143,-1.0715 l -0.119,-0.4762 c 0.2381,-0.4762 1.548,-2.2623 1.9051,-2.6195 0,-0.3572 0.3572,-0.8334 0.5953,-1.0715 l 0.2381,-1.0715 -0.119,-0.1193 c 0,-0.2381 1.0715,-1.3096 1.3096,-1.4287 0.2381,-0.7143 0.4762,-1.4286 1.0718,-1.9049 l 0.7143,-1.548 0.9524,-0.9524 c -0.2381,-0.2381 -0.2381,-0.5953 -0.2381,-0.8334 v -0.3572 c 0.4762,-0.4765 0.7143,-0.9527 1.1906,-1.4289 -0.1191,-0.1191 -0.1191,-0.3572 -0.1191,-0.4762 0,-0.7144 0.5956,-1.9049 0.8337,-2.6195 -0.9527,-0.3572 0.119,-0.9525 0.119,-1.4287 0,-0.4762 -0.3571,-1.5477 -0.9527,-1.5477 -0.4762,0 -0.5953,0.5953 -1.0715,0.5953 l -0.119,-0.1191 -0.2381,-0.119 0.2381,-0.3572 c 0.119,0 0.4762,0 0.4762,-0.1193 0,-0.3572 -0.3572,-0.5953 -0.5953,-0.7144 0,0.4763 -0.5953,0.8337 -1.0715,0.8337 l -0.5953,-0.9527 c -0.3574,0 -0.7146,0.119 -1.0717,0.2381 l -0.5953,-0.8334 -0.9525,-0.1191 -0.2381,-0.2381 v -0.2381 c -0.3571,0 -0.2381,0.7144 -0.4762,0.7144 l -0.2381,-0.8334 c 0.1191,-1.0715 0.7143,-1.9052 1.3096,-2.7386 l -0.8334,-0.4762 c -0.2381,0.2381 -0.4762,0.3572 -0.8337,0.3572 -0.2381,0 -0.2381,-0.2381 -0.2381,-0.4763 l -0.7143,-0.119 -0.7143,0.119 c -0.3572,-0.119 -0.8334,0 -0.8334,0.4763 l 0.3572,0.2381 -0.3572,0.3571 c 0,-0.7143 -0.9524,-0.119 -0.9524,-1.1905 l 0.9524,-0.5953 c 0.5953,0 0.4762,-0.4762 1.1905,-0.4762 0.1191,0.119 0.2382,0.4762 0.4763,0.4762 0.119,0 0.119,-0.9524 0.119,-1.1908 0,-1.7859 0.8334,-1.5477 2.1433,-1.5477 0.3572,0 1.5477,0 1.5477,-0.4763 h 1.7861 l 0.4762,-1.3096 -1.667,0.8334 c -1.4287,0 -0.5953,-0.9524 -0.5953,-1.548 0,-0.4762 -0.7143,-0.7143 -0.8334,-0.9524 0.5953,-0.4762 2.0242,-0.1191 2.6195,0 0.5953,-0.1191 1.7858,-0.1191 1.5477,-1.0715 H 655.6 c 0,-0.1191 0.2381,-0.4762 0.3571,-0.4762 0.1194,0 0.1194,0.3571 0.1194,0.4762 0.4762,0.2381 1.0715,0.4762 1.6667,0.4762 0.3572,0 0.5953,-0.1191 0.5953,-0.4762 1.1906,0 2.1433,-0.4762 3.0957,-0.4762 l 0.9525,-0.9528 h 1.9051 c 1.0715,-1.0715 4.6435,-1.7858 5.9531,-1.7858 l 0.7146,-0.4762 c -0.2381,-0.3572 -0.7146,-0.4762 -1.0718,-0.4762 -0.9524,0 -2.9766,0.9524 -4.0481,0.9524 l -0.4763,-0.4762 c -0.119,0 -1.9048,0 -1.9048,-0.4762 0,-0.1191 0.2381,0 0.3571,0 l 1.7858,-0.9528 c 0.5953,0 0.4763,-0.4762 0.4763,-0.9524 0,-0.2381 0.119,-0.3572 0.3571,-0.3572 l 0.5953,-1.1905 h 0.4765 c 0.3572,0 0.9525,0 0.9525,-0.4762 l 0.7143,-0.5956 h 0.4762 c 0.4762,0 0.5953,-0.2381 0.5953,-0.7143 0.3571,-0.1191 3.0957,-0.5953 3.0957,-1.0715 0,-0.1191 -0.4762,-0.1191 -0.5953,-0.1191 -1.3096,0 -2.5004,0.4762 -3.81,0.4762 -0.8334,0.7144 -2.2624,0.4763 -3.2148,0.4763 l -0.2381,0.4762 h -2.1433 l -0.4762,0.4762 -1.3096,-0.2381 -0.3572,-1.1906 h 2.8576 c 2.5002,-1.1905 5.715,-2.1432 8.4535,-2.7385 0.2381,-0.1191 0.7143,-0.1191 0.7143,-0.4762 0.8334,0 0.9525,-0.4762 1.548,-0.4762 h 1.6668 c 0.1191,0 0.5953,0 0.5953,-0.1191 0,-0.1191 -1.1906,-0.2381 -1.6668,-0.2381 -1.3099,0 -2.7385,0.119 -4.0481,0.3572 l -0.5953,0.4762 h -1.7861 c -0.4762,0 -0.4762,-0.4762 -0.9525,-0.4762 0.2381,-0.2382 0.8334,-0.5953 0.8334,0 0.4762,0 3.2148,-0.5953 3.2148,-1.3097 l 1.6668,0.1191 1.0717,-0.4762 c 0.2382,0 0.7144,-0.1191 0.7144,-0.4765 l 0.4762,0.4765 c 0.119,-0.3575 0.4762,-0.4765 0.8334,-0.4765 l 1.4289,-0.9525 h 8.4535 c -0.5953,-1.3096 -5.358,-1.4286 -6.9058,-1.4286 v 0.119 c 0,0.3572 -0.5952,0.3572 -0.8333,0.3572 h -8.6919 c 0,0.8334 -2.3811,0.4762 -2.7383,0.4762 0,0.8334 -3.0957,0.4762 -3.3338,0.4762 l -0.8337,0.4763 c -3.9291,-0.1191 -7.9772,0.3571 -12.0254,0.3571 l -1.1906,0.5956 -1.667,-0.1191 c -0.7143,0.4762 -2.0239,0.5953 -2.8573,0.5953 l -0.7146,0.3572 c -1.6668,0 -3.3336,0.4762 -5.1197,0.4762 0,0.4762 -2.2623,0.3572 -2.5004,0.3572 -0.1191,0.2381 -2.3811,0.8333 -3.0955,1.4286 -1.4289,0 -2.8576,0.4765 -4.4056,0.4765 -0.119,0.5953 -1.4286,0.5953 -1.9049,0.5953 l -0.2381,0.3572 h -2.0242 c 0,0.7143 -1.3096,0.3571 -1.6668,0.3571 -0.119,0.2381 -2.3813,0.9525 -2.9766,1.4287 -0.8334,0 -1.6671,0.4762 -2.5005,0.4762 l -0.4762,0.4765 c -0.3571,0 -1.7858,-0.119 -1.7858,0.4762 h -1.1908 l -0.1191,0.3572 h -1.0715 l -0.4762,0.4762 c -1.7861,0 -3.0957,1.3096 -4.8816,1.3096 l -0.3574,0.4762 h -0.7143 c -0.3572,0 -0.4763,0.1191 -0.4763,0.4765 -0.4762,0 -1.4286,-0.2383 -1.4286,0.4763 l -0.9527,-0.1191 c -0.3572,0 -0.4763,0.2381 -0.4763,0.5953 -0.5952,0 -0.5952,-0.5953 -0.3571,-0.9525 -0.1191,-0.119 -0.4763,-0.2383 -0.4763,-0.4765 0,-0.2381 1.3097,-0.119 1.3097,-0.7143 h 0.2383 c 0.3572,0 0.7144,-0.119 0.7144,-0.4762 l 0.9524,-0.9524 1.0715,-0.1191 0.7143,-1.1908 c -0.2381,-0.2381 -0.4762,-0.7144 -0.4762,-1.0715 0,-0.4763 3.572,-1.4287 4.5247,-2.2621 0,-0.4765 0.4762,-0.7146 0.4762,-1.3099 l 0.8334,-0.5952 c 1.3096,0 1.4287,-1.3097 2.5004,-1.3097 0.8334,-0.4762 1.6668,-0.9527 2.6192,-1.3098 l 1.429,-1.9049 0.8334,-0.3572 c 0.3571,-0.3572 0.8334,-0.4762 1.3096,-0.4762 l 0.5953,-0.9527 h 0.8336 l 0.1191,-0.1191 -0.3572,-0.119 -1.0718,-0.1191 c 0,0.7143 -7.2629,4.0482 -8.6916,5.8343 -0.2381,-0.2381 -0.5952,-0.7144 -0.5952,-1.0715 0,-0.2384 0.2381,-0.2384 0.3571,-0.2384 l 4.8816,-2.3811 c 0.7143,0 0.119,-0.8334 1.3099,-0.8334 0.8334,-0.4765 1.6667,-1.429 2.7382,-1.429 1.429,-0.9524 2.9767,-1.6667 4.5247,-2.3811 0,-0.3574 0.3572,-0.2384 0.5953,-0.2384 0.2381,0 0.3571,-0.2381 0.3571,-0.4762 l 1.3096,0.2381 c 0,-0.5952 1.7862,-1.1905 2.2624,-1.3096 l 0.9524,-0.8334 c 0.1191,0 1.6668,-0.8333 1.6668,-0.9524 l 0.7146,-0.3574 c 1.6668,0 2.2621,-1.9049 3.9291,-1.9049 l 1.5477,-0.9525 c 0,-0.3571 0.4762,-0.3571 0.7144,-0.3571 0.8336,0 0.8336,-0.4765 1.548,-0.4765 0.4762,-0.3572 2.5001,-1.0715 2.5001,-1.3096 h 0.5956 c 0.3571,-0.5953 1.6667,-1.1906 2.262,-1.4287 0.9527,0 1.7861,-0.4762 2.7386,-0.4762 0.4762,-0.3575 1.0715,-0.8337 1.6667,-0.8337 0.1191,-0.3572 0.4765,-0.4762 0.8337,-0.4762 0,-0.3572 0.5953,-0.4762 0.8334,-0.4762 0.1191,-0.3572 0.5953,-0.4763 0.9524,-0.4763 l 0.2381,-0.9524 -0.4762,-0.2381 c 5.0006,-1.4289 4.5244,0.1191 4.5244,-3.0957 0,-0.7144 0.5956,-1.548 1.3099,-1.7861 0.2381,-0.3572 0.3572,-0.8334 0.3572,-1.3096 0,-0.3572 -0.1191,-0.5953 -0.4763,-0.4763 0,-0.5952 -1.548,-0.5952 -2.0242,-0.5952 0.2381,-0.1191 2.9767,-0.9528 2.9767,-1.429 h -0.2381 c -1.1906,0 -2.9767,0.8334 -4.1672,1.1909 -0.1191,-0.1191 -0.3572,-0.2382 -0.5953,-0.2382 -1.3099,0 -2.7386,0.7144 -4.0485,0.7144 -0.7143,0 -1.0715,-1.0718 -1.7858,-0.8337 l -0.3572,-0.3572 -0.7143,0.2382 0.3572,-1.0715 h 0.2381 c 0.3572,0 0.4762,0.2381 0.9524,0.119 l 0.5953,0.3572 c 2.8576,-0.9525 5.4771,-2.2621 8.3347,-3.0957 0.3572,-0.1191 2.3811,-0.5953 2.3811,-1.0715 v -0.1191 c -0.8334,0.2381 -6.0721,2.0242 -6.6676,2.0242 -0.5953,0 -0.8334,-1.667 -1.5477,-1.667 -1.1906,0 -2.9767,0.9524 -4.0482,1.3099 l -0.4762,-0.8337 c -0.9528,0.2381 -8.6919,3.5719 -8.811,3.5719 -0.119,0 -0.119,-0.119 -0.119,-0.119 0,-0.3572 0.119,-0.7144 0.119,-1.0715 l 0.8337,-0.4762 0.8334,0.7143 c 0.4762,-1.0715 3.5719,-1.6668 4.5244,-1.9049 z m -54.6506,57.6269 c 0.9525,0 2.1433,-3.0957 2.2624,-3.691 1.1905,-0.7143 2.262,-2.8576 3.2147,-3.9291 l 1.4287,0.8334 c 0,0.4765 -0.4762,0.3575 -0.4762,0.8337 0.5952,0.3572 1.0715,0.9524 1.4286,1.4287 h 1.3099 l 0.5953,0.8333 c 0.3572,0 0.9524,0.1191 1.1905,0.4763 0.1191,0 0.4763,0 0.4763,0.2381 0,0.2384 -0.2381,0.5955 -0.4763,0.7146 l 0.8334,0.9524 1.9052,0.7144 c 0.3572,-0.1191 2.262,-0.7144 2.6195,-0.7144 0.2381,0 0.5953,0 0.5953,0.2381 0,0.4763 -0.4762,0.8334 -0.4762,1.3096 0,0.2382 0.3571,0.2382 0.4762,0.2382 1.5477,0.4765 3.0957,0.9527 4.5243,1.7861 1.1906,0 5.2388,0.119 6.3105,-0.4763 0,-0.5952 0.4763,-0.8333 0.4763,-1.3098 1.0715,0 2.1429,0.4765 3.2147,0.4765 l 0.1191,-0.4765 c 0.5953,0 1.5477,0.119 1.9049,-0.4763 h 1.667 l 0.7144,-0.9524 c -0.5953,0.9524 -1.3097,1.9052 -1.7862,2.8576 l -1.1905,0.3572 c 0,0.4762 -3.691,3.4529 -3.691,4.1672 -0.4762,0.4762 -1.0715,1.0715 -1.7858,1.3096 -0.4765,0 -0.4765,0.4765 -1.0718,0.4765 -0.8334,1.0715 -1.9049,1.6668 -2.6192,2.7383 -0.7146,0 -1.429,1.3098 -1.7861,1.7861 l -1.3096,0.4762 c -0.5953,0.7143 -0.9528,1.4287 -1.9052,1.4287 -0.9524,0.2381 -1.7858,0.8333 -2.262,1.667 -0.4766,0.1191 -1.7862,0.4762 -1.7862,1.0715 -1.9048,1.4287 -4.7624,1.9052 -6.3104,3.5719 -0.5953,0 -0.3572,0.4763 -0.9525,0.4763 -0.9524,1.0715 -2.5004,2.2623 -3.9291,2.7385 h -0.5953 c -2.5004,0 -0.4762,2.5005 -3.81,0.9525 -0.9525,0 -2.7386,0.4762 -4.0482,0.4762 -0.2381,0 -0.9527,-0.1191 -0.7143,-0.4762 l -2.0242,-1.6668 v -3.4529 c -1.3096,0 0,-2.8576 0,-3.2148 l -0.5953,-0.8334 c -0.8334,0 -0.9524,1.6668 -0.9524,2.2621 l -0.2384,-1.4287 0.4765,-0.4762 -0.4765,-0.3572 v -0.3571 c 0,-0.3575 0.1193,-0.5956 0.4765,-0.5956 0.119,-0.4762 0.4762,-1.0715 0.8334,-1.3096 v -1.3096 l 0.4762,-0.9527 1.4286,0.3571 c 0.2381,-0.2381 0.3572,-0.5952 0.3572,-0.9524 l 0.9527,-1.1905 c 0,-2.1433 -0.5952,-2.5005 0.7144,-2.5005 0.2381,0 0.2381,-0.5953 0.2381,-0.7143 0,-0.4762 0.3571,-0.7143 0.3571,-1.1906 0.7144,-0.5952 1.4287,-1.0717 1.4287,-2.0242 l 0.9527,-0.9524 c -0.8334,0 -0.9527,-1.548 -0.9527,-2.1433 l -0.4762,-0.2381 0.4762,-0.1191 c 0,0.1191 0,0.2381 0.1193,0.2381 0.2381,0 0.7144,-0.9524 0.1191,-0.9524 0.3572,-0.7143 0.7143,-1.5477 0.7143,-2.2623 0.4762,0 0.3572,-0.2381 0.3572,-0.5953 0,-0.3572 0.2381,-0.3572 0.4762,-0.3572 l 0.4762,-0.8334 0.8334,0.5953 c -0.2381,0.5953 -0.4762,1.3096 -0.8334,1.7861 -0.3571,0.3572 -0.8334,0.5953 -1.3096,0.8334 0,0.4762 -0.4762,0.3572 -0.4762,0.8334 l 0.9524,0.5953 c 0,0.119 0,0.3571 0.1191,0.3571 0.1191,0 0.8334,-1.5477 1.1905,-2.262 l 0.2382,-0.1191 c 0.119,0 0.119,0.1191 0.119,0.2381 0,0.7144 -0.4762,1.5478 -0.8334,2.143 z m 12.7401,41.0772 0.5952,-0.1191 c 0.3572,0 0.8334,0.1191 0.8334,0.4765 0.2381,-0.119 1.7858,-0.5955 1.7858,-0.119 0,0.2381 -0.2381,0.4762 -0.4762,0.5952 -0.5952,0 -1.0715,0.4763 -1.3096,0.9525 l -1.9051,0.5953 c 0,0.4762 -0.5953,0.2381 -0.9525,0.2381 -0.2381,0 -0.3572,0.2381 -0.3572,0.4762 -0.4762,0 -1.3096,0.3572 -1.3096,0.9527 h -1.1908 l -0.3572,0.4762 c -0.8333,0 -1.3096,0.4763 -2.143,0.4763 -0.2381,0 -0.9527,0 -0.9527,-0.3572 l 1.429,-1.0718 c 0,-0.119 0,-0.8334 0.119,-0.8334 0.1191,0 0.3572,0.4762 0.7144,0.4762 0.119,0.1191 0.4762,0.4763 0.7143,0.4763 0.2381,0 0.2381,-0.3572 0.2381,-0.4763 l 3.2148,-0.9524 c 0.3571,-0.1191 1.4289,-0.9524 0.3571,-0.9524 0,-1.0715 0.9528,-0.7144 0.9528,-1.3099 z m -17.7407,-41.0772 c 0,-0.4762 0.1191,-1.0715 0.4762,-1.3096 -0.119,0 -0.5952,0 -0.5952,-0.2381 0,-0.2381 0.4762,-0.2381 0.5952,-0.2381 l 0.9525,-1.9052 0.8334,-0.5952 c 0,-0.3572 0.119,-0.8334 0.4762,-1.0715 0.7146,-1.3099 1.6671,-2.6195 2.7385,-3.691 l 1.7862,1.5477 -1.3099,0.2381 -0.4763,-0.8334 c -1.1905,1.0715 -1.9048,2.5005 -2.7385,3.9291 0,0.5953 -0.4762,0.8334 -0.4762,1.429 l -0.9525,0.4762 c 0,0.7143 -0.5952,1.6668 -0.9524,2.262 -0.8334,0 0.119,0.9528 -0.8334,0.9528 v -0.3575 c 0,-0.2381 0.1191,-0.5953 0.4762,-0.5953 z m 19.1693,-18.2168 c 0,0.5953 -0.4762,0.3572 -0.4762,0.9527 -0.9524,0 -0.9524,1.3096 -1.9052,1.3096 -1.0715,0.9525 -2.262,1.7858 -3.5719,2.3814 0,0.1191 -0.2381,0.7143 -0.3572,0.7143 -0.119,0 -0.119,-0.3571 -0.119,-0.3571 0,-1.429 2.9766,-3.3339 4.0481,-3.691 0,-0.7146 1.429,-0.3572 1.429,-1.548 0,-0.1191 0,-0.3572 0.2381,-0.3572 0.2381,0 0.5953,0.2381 0.7143,0.4762 0,-0.4762 0.4762,-0.3571 0.4762,-0.119 0,0.2381 -0.3571,0.2381 -0.4762,0.2381 z m -20.9554,22.265 0.4762,-0.4762 c 0,0.7143 -0.4762,0.3571 -0.4762,1.0718 -0.3571,0.3571 -0.4762,0.9524 -0.4762,1.4286 -0.3572,0.1191 -0.4762,0.5953 -0.4762,0.9525 l -0.4762,0.5952 c 0,0.9528 -0.3572,1.6671 -0.3572,2.5005 -0.8334,0.3571 -0.1191,1.6667 -0.9527,2.0242 0,0.3572 -0.7144,2.5002 -0.9525,2.5002 v -2.143 c 0.1191,-0.1191 2.2624,-6.0724 2.2624,-6.5486 0.9524,0 0.3571,-1.9052 1.4286,-1.9052 z m 29.1708,32.8618 c 0,-0.1191 0,-0.4763 0.119,-0.4763 0.1191,0 0.2382,0.3572 0.2382,0.4763 l -0.8334,0.4762 -1.4287,1.7861 c -0.7146,0 -1.1908,0.9524 -1.548,1.4287 -0.8334,0 -0.9524,0.8336 -1.7858,0.8336 -0.2381,0 -0.3572,-0.119 -0.3572,-0.3574 0,-0.4762 0.3572,-1.0715 0.5953,-1.4287 0.8334,0 2.5004,-1.7858 3.2148,-1.7858 0.4762,-0.3572 1.1905,-0.9527 1.7858,-0.9527 z m -21.9079,8.6918 4.0482,0.1191 c 0,0.5953 -1.5477,0.2381 -1.9049,0.2381 -0.119,0 -0.3571,0 -0.3571,0.2381 l -2.2624,0.7143 c 0,0.5953 -0.7143,0.4763 -1.0715,0.4763 -0.3571,0 -0.8334,0.119 -1.0715,0.4762 -0.3574,0.2381 -0.9527,0.4762 -1.4289,0.4762 -0.3572,0 -0.4762,-0.1191 -0.4762,-0.4762 l 2.1432,-1.4287 c 0.4763,0 2.3811,0 2.3811,-0.8334 z m 39.8866,-45.6018 1.1906,-0.4762 0.8337,-0.9524 c 0,-0.2381 0.119,-0.4762 0.3571,-0.4762 0.2381,0 0.5953,0.2381 0.5953,0.4762 0,0.119 -0.1191,0.119 -0.2381,0.119 l -0.7143,0.8334 c -0.7147,0 -1.429,1.429 -1.7862,1.9052 l -1.0715,0.4762 -0.8333,0.8334 c -0.7147,0 -1.429,0.8334 -1.7862,1.3096 -0.2381,0 -1.4286,-0.1191 -0.9524,0.4765 -0.119,0.1191 -0.119,0.1191 -0.2381,0.1191 h -0.1191 c 0,-0.2384 0.2382,-0.4765 0.3572,-0.5956 1.7858,-1.0715 3.0957,-2.3811 4.4053,-4.0482 z m -15.9545,42.9823 -1.0718,-0.119 c -0.8334,0.8334 -2.143,2.8576 -2.7382,3.9291 l 0.3571,0.5953 0.8334,-0.3572 c 0.3572,-0.4762 0.4762,-1.0715 0.9525,-1.4287 0,-0.3571 0.2381,-0.8336 0.5952,-1.0717 0.2384,-0.5953 0.7146,-1.0715 1.0718,-1.5478 z m -8.8109,18.455 -0.8334,-0.1191 c -0.2381,0.2382 -0.5953,0.5953 -0.7143,0.9525 -0.5953,0.5953 -1.1906,1.548 -1.5478,2.2623 l 0.2382,0.4762 0.7143,-0.3571 c 0.119,-0.3572 0.4762,-0.8334 0.8334,-1.0715 0,-0.4765 0.9524,-1.7861 1.3096,-2.1433 z m 49.1737,-79.5351 1.1906,-0.119 1.0715,0.4762 c 0.119,0 0.2381,0 0.2381,0.1191 0,0.119 -0.2381,0.3574 -0.3572,0.3574 h -1.6668 l -0.9524,0.4762 -1.429,-0.2381 c 0,-0.9527 1.9052,-0.3571 1.9052,-1.0718 z m -43.3395,58.6988 -1.4286,1.7861 -1.3099,0.2381 0.5953,0.7143 c 0.119,-0.3572 0.4762,-0.4762 0.8336,-0.4762 l 0.3572,-0.4762 c 0.5953,0 0.8334,-0.4763 1.4287,-0.4763 0.119,-0.2381 0.2381,-0.5952 0.2381,-0.8336 0,-0.3572 -0.4762,-0.4762 -0.7144,-0.4762 z m -28.2183,-27.3847 c -1.3096,0 -1.4286,0.5953 -1.4286,1.7858 v 0.4762 c 1.1905,0 1.4286,-1.3096 1.4286,-2.262 z m 36.7909,21.9078 h -0.7143 l 0.5952,-0.5952 c 0.2381,-0.7147 0.7144,-1.1909 0.8334,-1.9052 l 0.8337,-0.3572 -0.1191,0.3572 h 0.1191 l 0.2381,-0.2381 0.3572,-0.1191 z m 3.3338,-8.4534 c 0,-0.1191 0,-0.2384 0.1191,-0.2384 0.2381,0 0.7143,0.4765 0.7143,0.7146 0,0.2381 -0.1191,0.2381 -0.2381,0.2381 l -1.5477,0.8334 c -0.1191,0 -0.9525,0 -0.9525,-0.2381 z m -19.0502,42.0295 -0.4762,-0.119 -0.2382,-0.7144 h -0.119 c -0.2381,0 -0.4762,0.1191 -0.7143,0.3572 -0.2382,0.1191 -0.2382,0.1191 -0.2382,0.3572 0,0.3571 -0.5955,0.4762 -0.5955,0.8334 0,0.119 0.2381,0.119 0.3572,0.119 h 0.4765 l 0.7143,-0.5953 z m 39.8866,-75.844 c 0,-0.2381 0.119,-0.3572 0.3571,-0.3572 0.3572,0 2.0242,0.5953 2.0242,0.9524 0,0.1194 -1.0717,0.2384 -1.548,0.2384 z m -50.6024,-0.3572 c 0,0 0.119,0 0.119,0.1191 0,0.9527 -0.8334,1.667 -1.4286,2.3813 -0.2382,0 -0.3572,-0.119 -0.3572,-0.2381 0,-0.3571 1.3096,-2.2623 1.6668,-2.2623 z m -8.8107,10.2396 c 0.3572,0 0.4762,0.2381 0.4762,0.5953 0,0.8334 -1.4289,2.5004 -1.4289,3.9291 l -0.2381,0.3571 c 0.3571,-0.8334 0.5953,-3.691 1.1908,-4.8815 z m 16.6689,17.7406 0.3571,-0.2381 c -0.3571,0.7143 -1.1905,1.3096 -1.9048,1.6668 -0.1191,0 -0.5953,0 -0.5953,-0.2381 0,-0.4763 1.6667,-1.1906 2.143,-1.1906 z m 9.5252,-46.9114 0.4762,-0.3571 -1.4286,1.7858 c -0.2384,0 -0.7146,0 -0.7146,-0.3572 0,-0.4762 1.1908,-1.0715 1.667,-1.0715 z m 0.8334,95.7277 -0.119,0.1191 c -0.1191,0.2381 0.119,0.119 0.119,0.3571 0,0.1191 -0.3572,0.7146 -0.4762,0.8337 -0.3572,0.2381 -0.8334,0.8334 -1.3096,0.9524 l 0.2381,-0.7143 0.9524,-0.7146 -0.119,-0.5953 z m 2.8576,-33.6951 c 0,0 0,-0.4763 0.1191,-0.4763 0,0 0.119,0.3572 0.119,0.4763 l -0.7143,0.7143 c 0,0.119 -0.1191,0.2381 -0.2381,0.2381 -0.2381,0 -0.8337,-0.2381 -0.8337,-0.4762 0,-0.4762 1.0718,-0.4762 1.548,-0.4762 z m 20.9554,-75.9632 -0.9527,0.2381 -0.4762,0.9528 c -0.3572,0 -0.7144,0.119 -0.9525,0.3571 -0.119,0 -0.3571,0 -0.3571,-0.2381 0,-0.2381 0.3571,-0.4765 0.4762,-0.5955 0.8334,0 1.3096,-0.8334 2.2623,-0.8334 z m -27.504,115.0163 0.1191,-1.1908 c 0.119,-0.119 0.8334,-0.9524 0.9524,-0.9524 0.1191,0 0,0.2381 0,0.2381 v 0.3571 c -0.2381,0.2382 -0.5953,0.4763 -0.7143,0.7144 l 0.119,0.9527 -0.9524,0.5953 z m 14.0497,-39.0531 h 0.119 l -0.119,0.119 -0.1191,0.2381 h -0.1191 c 0,0.3572 -0.119,1.1906 -0.5952,1.1906 -0.1191,0 -0.2381,-0.1191 -0.3572,-0.2381 l -0.119,-0.5953 z m 33.9332,-42.0296 h -0.4762 c -0.8334,0 -0.7143,0.2381 -0.9524,0.9524 0.5952,0 1.4286,-0.119 1.4286,-0.9524 z m -31.9093,11.9063 -0.4762,0.9525 c -0.8334,0 -0.9525,1.3096 -2.024,1.3096 l -0.2381,0.4765 -0.3571,-0.4765 c 0.3571,-0.3572 0.8333,-0.4762 1.3096,-0.4762 z m -14.6449,-28.3373 c -0.1191,-0.1191 -0.3572,-0.4763 -0.3572,-0.7144 0,-0.119 0.1191,-0.119 0.2381,-0.119 0.4765,0 1.0718,0.119 1.548,0.2381 l -0.5952,0.2381 -0.3572,0.3572 c -0.1191,0 -0.3575,0 -0.4765,0.119 l -0.1191,0.1191 z m 47.9832,16.0735 c 0.2381,0.2381 0.7143,0.8337 1.1905,0.8337 0.1191,0 0.1191,-0.1191 0.1191,-0.2381 0.119,-0.1191 0.4762,-0.2381 0.4762,-0.4765 0,-0.1191 -0.4762,-0.1191 -0.4762,-0.1191 z m -33.2192,38.2198 -0.3572,0.3572 h -0.2381 c 0,-0.2381 0.9527,-0.7143 0.9527,-1.1905 0,0.119 0.1191,0.119 0.1191,0.119 0.3571,0 1.0715,-0.5955 1.3096,-0.7146 -0.4763,0.5956 -0.9525,1.4289 -1.7861,1.4289 z m -10.1203,8.2154 c 0,0.5953 0.1191,0.9525 0.8334,0.9525 h 0.4762 l -0.3572,-0.5953 z m -10.9539,30.9569 c 0,-0.1191 -0.1191,-0.3575 -0.3572,-0.3575 -0.119,0 -0.4765,0.9528 -0.8337,1.0718 h 0.7147 z m 72.0337,-94.299 c 0,0.7143 1.548,0.3571 2.0242,0.2381 z m 2.7386,-0.4763 c 0,0.3572 0.3571,0.5953 0.7143,0.5953 l 0.5953,-0.4762 z m -82.0353,13.216 c 0,0.5953 -0.4762,0.4762 -0.4762,1.1909 l -0.4765,-0.4766 z m 11.6683,69.1764 h -0.3572 c -0.3571,0 -0.4762,0.1191 -0.2381,0.3572 -0.119,0.119 -0.2381,0.3572 -0.2381,0.4762 0.2381,0 0.7143,-0.7143 0.8334,-0.8334 z m -38.1005,-15.2402 c 0.1191,-0.119 0.3572,-0.119 0.5953,-0.119 0.1191,0 0.2381,0.119 0.2381,0.2381 -0.119,0.119 -0.3572,0.2381 -0.5953,0.2381 -0.119,0 -0.2381,-0.2381 -0.2381,-0.3572 z m 66.0807,-83.4641 0.1191,-0.2381 0.4762,-0.3572 0.2381,0.1191 c 0,0.3571 -0.2381,0.4762 -0.5953,0.4762 z m -36.9102,28.6945 1.429,0.1191 c -0.2381,0.119 -1.429,0.3572 -1.429,-0.1191 z m 24.5274,42.8633 c -0.2382,0 -0.2382,-0.2381 -0.3572,-0.3572 0.2381,-0.119 0.3572,-0.119 0.5953,-0.119 0.119,0 0.119,0 0.119,0.119 0,0.1191 -0.2381,0.3572 -0.3571,0.3572 z m -23.5747,-44.6491 c 0.1191,0 0.1191,-0.1191 0.2382,-0.1191 0.119,0 0.2381,0.1191 0.2381,0.2382 0,0.119 0,0.3571 -0.2381,0.3571 -0.1191,0 -0.2382,-0.3571 -0.2382,-0.4762 z m -16.431,22.7412 0.4762,0.9525 c -0.3571,0 -0.4762,-0.1191 -0.4762,-0.4762 z m -4.6434,6.9058 c 0.119,0 0.119,-0.1191 0.2381,-0.1191 0.1191,0 0.2381,0.1191 0.2381,0.2382 0,0.119 0,0.3571 -0.2381,0.3571 -0.1191,0 -0.2381,-0.3571 -0.2381,-0.4762 z m -10.0015,26.4322 c 0.1191,0 0.1191,-0.119 0.2381,-0.119 0.1191,0 0.2381,0.119 0.2381,0.2381 0,0.119 0,0.3571 -0.2381,0.3571 -0.119,0 -0.2381,-0.3571 -0.2381,-0.4762 z m 22.3841,-45.6018 c 0.119,0 0.119,-0.119 0.2381,-0.119 0.119,0 0.2381,0.119 0.2381,0.2381 0,0.119 0,0.3574 -0.2381,0.3574 -0.1191,0 -0.2381,-0.3574 -0.2381,-0.4765 z m 26.7896,11.4304 c 0.1191,0 0.1191,-0.119 0.2381,-0.119 0.1191,0 0.2382,0.119 0.2382,0.2381 0,0.1191 0,0.3572 -0.2382,0.3572 -0.119,0 -0.2381,-0.3572 -0.2381,-0.4763 z m 28.3371,-24.1701 c 0.1191,0 0.1191,-0.1191 0.2381,-0.1191 0.1191,0 0.2384,0.1191 0.2384,0.2381 0,0.1191 0,0.3572 -0.2384,0.3572 -0.119,0 -0.2381,-0.3572 -0.2381,-0.4762 z m -39.6481,2.2623 c 0.119,0 0.119,-0.1191 0.2381,-0.1191 0.119,0 0.2381,0.1191 0.2381,0.2382 0,0.119 0,0.3571 -0.2381,0.3571 -0.1191,0 -0.2381,-0.3571 -0.2381,-0.4762 z m -23.2178,15.8355 h 0.1191 c 0.2381,0 0.3571,0 0.3571,0.2381 0,0.119 0,0.2381 -0.119,0.2381 -0.2381,0 -0.3572,-0.2381 -0.3572,-0.4762 z m 67.0334,-18.0978 0.8334,0.119 c -0.119,0.1191 -0.3571,0.2381 -0.5953,0.2381 -0.119,0 -0.2381,-0.2381 -0.2381,-0.3571 z m -64.2948,16.4307 c 0,0 0.119,-0.119 0.2381,-0.119 0.119,0 0.119,0.119 0.119,0.2381 0,0.119 0,0.3574 -0.119,0.3574 -0.2381,0 -0.2381,-0.3574 -0.2381,-0.4765 z m -7.382,17.2644 0.4762,0.8334 c -0.2381,0 -0.4762,-0.119 -0.4762,-0.3572 z m 0,-3.2147 0.4762,0.8333 c -0.2381,0 -0.4762,-0.119 -0.4762,-0.3571 z m 26.9084,-35.1239 0.4762,0.1191 c 0,0.1191 0,0.3572 -0.2381,0.3572 -0.119,0 -0.2381,-0.3572 -0.2381,-0.4763 z m 12.2638,30.9566 0.4763,0.1191 c 0,0.119 0,0.3572 -0.2382,0.3572 -0.119,0 -0.2381,-0.3572 -0.2381,-0.4763 z m -15.4785,9.1681 0.4765,0.1191 c 0,0.119 0,0.3572 -0.2382,0.3572 -0.1193,0 -0.2383,-0.3572 -0.2383,-0.4763 z m 9.168,19.1693 0.4763,0.1191 c 0,0.119 0,0.3571 -0.2381,0.3571 -0.1191,0 -0.2382,-0.3571 -0.2382,-0.4762 z m -10.9539,-51.5548 0.4762,0.119 c 0,0.1191 0,0.3572 -0.2381,0.3572 -0.119,0 -0.2381,-0.3572 -0.2381,-0.4762 z m -14.1687,12.3826 0.4763,0.119 c 0,0.1191 0,0.3572 -0.2382,0.3572 -0.119,0 -0.2381,-0.3572 -0.2381,-0.4762 z m 27.385,-28.3374 0.4762,0.119 c 0,0.1194 0,0.3575 -0.2381,0.3575 -0.1191,0 -0.2381,-0.3575 -0.2381,-0.4765 z m 34.6476,4.6437 0.4762,0.1191 c 0,0.119 0,0.3571 -0.2381,0.3571 -0.1191,0 -0.2381,-0.3571 -0.2381,-0.4762 z m -65.6045,34.5285 0.4762,0.1191 c 0,0.119 0,0.3572 -0.2381,0.3572 -0.119,0 -0.2381,-0.3572 -0.2381,-0.4763 z m 21.4316,-30.9566 0.4762,0.1191 c 0,0.1191 0,0.3572 -0.2381,0.3572 -0.119,0 -0.2381,-0.3572 -0.2381,-0.4763 z m 0.8334,38.3386 0.4762,0.1191 c 0,0.119 0,0.3571 -0.2381,0.3571 -0.119,0 -0.2381,-0.3571 -0.2381,-0.4762 z m 8.0963,33.4571 c -0.119,0.119 -0.119,0.3571 -0.3571,0.3571 -0.1191,0 -0.2382,-0.2381 -0.2382,-0.3571 z m -9.4059,-32.5046 h 0.1191 c 0.2381,0 0.3571,0.119 0.3571,0.3574 -0.3571,0 -0.4762,0 -0.4762,-0.3574 z m 3.691,-41.0772 c 0.2381,0 0.4762,0.1191 0.4762,0.3572 h -0.3572 c -0.119,0 -0.119,-0.2381 -0.119,-0.3572 z m 5.0006,-5.4768 0.3572,0.1191 c 0,0.119 0,0.3571 -0.1191,0.3571 -0.2381,0 -0.2381,-0.3571 -0.2381,-0.4762 z m -28.6946,29.1708 0.3572,0.119 c 0,0.1191 0,0.3572 -0.1191,0.3572 -0.2381,0 -0.2381,-0.3572 -0.2381,-0.4762 z m 13.2163,22.8603 c 0.119,0 0.119,-0.1191 0.2381,-0.1191 0.1191,0 0.1191,0.1191 0.1191,0.2381 0,0.1191 0,0.2381 -0.1191,0.2381 -0.2381,0 -0.2381,-0.2381 -0.2381,-0.3571 z m 28.4564,5.834 c -0.119,0 -0.2381,0.1193 -0.2381,0.1193 -0.119,0 -0.2381,0 -0.3571,-0.1193 l 0.3571,-0.2382 z m -2.5004,1.667 h -0.4762 c 0,-0.119 0.119,-0.2381 0.2381,-0.2381 0.119,0 0.3571,0 0.3571,0.1191 z m -10.4777,21.6697 0.5953,-0.7143 v 0.1191 c 0,0.3571 -0.3572,0.4762 -0.5953,0.5952 z m -0.8334,1.5478 v -0.1191 l -0.1191,-0.3572 0.3572,-0.2381 z m 2.2623,-3.3339 -0.7146,0.5956 c 0,-0.1191 0.2381,-0.2384 0.3572,-0.3575 l 0.2384,-0.3571 z m -1.9051,17.1454 v -0.1191 l 0.119,-0.2381 c 0,0 0.1191,0 0.1191,0.1191 0,0 -0.1191,0.2381 -0.2381,0.2381 z m 6.3105,-121.8028 v -0.119 l 0.5952,-0.2381 z m -5.7153,105.253 h -0.2381 l 0.2381,-0.2384 z m 10.8349,-18.0978 v 0.119 l -0.119,0.2382 h -0.1191 z m -5.5959,-86.917 c 0,-0.1191 0.1191,-0.1191 0.2381,-0.1191 -0.119,0.1191 -0.2381,0.1191 -0.2381,0.2381 z m 5.3578,85.488 0.4762,-0.3571 z m -0.8334,2.8577 c 0.1191,-0.1191 0.1191,-0.1191 0.2381,-0.1191 -0.119,0.1191 -0.119,0.1191 -0.2381,0.1191 z m -5.358,-87.9886 h 0.119 l -0.119,0.1191 z m 14.1687,98.3472 0.119,-0.2381 -0.119,0.3572 z"
         style="fill:#000200;fill-rule:evenodd"
         id="path20"
         inkscape:connector-curvature="0" />
      <path
         d="m 741.4455,479.6796 0.2381,-0.1191 0.2381,-0.5952 c 0.5953,-0.5956 1.0718,-1.0718 1.1909,-1.9052 l 0.8334,-0.2381 c 0.119,-0.8334 0.5952,-1.7861 1.3096,-2.2623 0.4762,-1.4287 1.7861,-2.9764 2.7385,-4.0482 l 0.2381,-1.5477 c 1.1906,-1.429 2.0242,-2.9767 3.2148,-4.4053 h 0.119 l 0.4763,-0.2382 v -0.8336 l 1.1905,-0.5953 -0.3571,-1.0715 c 2.2623,-0.4762 0.119,-3.5719 2.5004,-4.4053 l 0.2381,-1.6671 0.5953,-0.2381 c 0.119,-0.8334 0.5953,-1.5477 1.3099,-2.0239 0.4762,-1.3099 3.0954,-7.7395 3.9291,-8.2157 0.8334,-3.81 1.3096,-7.8582 2.0239,-11.6682 -0.3572,-1.3096 -0.7143,-2.3811 -0.7143,-3.691 0,-0.3572 0.2381,-0.7143 0.5953,-0.5953 l -0.4763,-0.2381 c -0.2381,-0.3572 0.1191,-0.7143 -0.119,-1.0715 0.7143,-2.8576 -1.1906,-4.5247 -1.1906,-6.7867 l -0.8336,-0.9524 -0.1191,-1.1909 c -0.4762,-0.7143 -0.9524,-1.4286 -1.5477,-2.0239 -0.4762,-3.4529 -7.6201,-7.8582 -8.2154,-8.8109 h -0.8334 c -0.8336,-0.2382 -1.667,-0.7144 -2.2623,-1.4287 -1.548,-0.4762 -4.0482,-1.3099 -5.4771,-2.0242 v -0.3572 c -2.6192,-0.2381 -7.501,-1.3096 -9.7631,-1.9049 l -1.1908,0.2381 c -0.4762,-0.2381 -1.0715,-0.3571 -1.6668,-0.3571 -0.9524,0 -2.0242,-0.1191 -2.8576,0.3571 -0.7143,-0.119 -1.3096,-0.119 -2.0239,-0.119 l -0.1191,-0.2381 -0.5956,0.2381 h -2.8573 l -0.119,0.2381 c -0.5956,0.119 -1.1909,0 -1.7861,-0.2381 l -0.5953,0.3571 c -0.1191,0 -0.3572,-0.119 -0.4762,-0.119 -0.2381,0 -2.8576,0.7143 -2.9767,0.8334 -0.1191,0.119 -0.3572,-0.1191 -0.2381,-0.2381 -1.7861,0.2381 -3.691,0.119 -5.3578,0.9524 l -1.0718,-0.3572 c -2.262,0.5953 -15.002,4.4054 -16.4307,4.2863 l -0.119,-1.1905 0.119,-0.1191 c -0.9527,0.2381 -2.0242,0.4762 -2.6195,1.3096 l -1.1905,0.4762 -0.1191,0.1191 c 0.5953,0 1.3096,0.2384 1.6668,0.7146 -3.2148,0.9524 -6.1915,2.3811 -9.4059,3.0954 -1.3099,1.3099 -2.9767,1.0718 -3.8101,2.2624 -1.1908,0.8333 -1.4289,1.548 -3.0957,1.548 -0.5953,0 -1.429,0 -1.548,0.8333 -1.1906,0.5953 -3.8101,1.1906 -4.6434,2.143 -1.6668,2.1433 -3.4529,2.3814 -6.0724,3.4529 l -0.3572,1.1909 c -1.0715,0.4762 -1.9049,1.5477 -2.8576,2.262 l -1.0715,0.3572 v 1.0717 c -2.9766,0.4763 -3.81,4.1673 -6.6676,4.8816 l 0.2381,0.8334 c -0.5953,0.2381 -1.1906,0.3571 -1.6668,0.8334 l -0.4762,1.1908 v 0.3572 c -0.3572,0.9524 -1.3099,1.6667 -1.3099,2.6195 l -0.8334,1.4286 -1.0715,0.8334 c -0.7143,1.1906 -1.7861,2.1433 -2.8576,2.9767 -0.2381,0.7143 -0.5953,1.4286 -1.3096,1.7858 l 0.9524,-0.1191 c 1.0715,-0.5952 3.8101,-2.8573 4.2863,-3.9291 l 1.1908,-0.4762 v -0.9524 c 2.3811,-2.3814 17.5023,-12.6207 20.1218,-13.0972 1.1905,-0.7144 1.6667,-0.9525 3.0957,-1.0715 l -0.1191,-0.1191 c 1.5477,-0.8334 5.1197,-2.3814 6.7867,-2.3814 0.2381,0 0.4763,0.1191 0.7144,0.2381 -1.6671,0.4766 -3.0957,1.9052 -4.4054,2.1433 l -0.7143,1.0715 v 0.1191 c -0.9527,0.119 -5.1199,2.8576 -5.358,3.0957 0.5952,0 1.3096,0.119 1.9051,-0.2381 l 0.2381,1.0715 0.7144,0.3574 c 0.7143,-0.3574 1.4286,-0.8336 2.0239,-1.3099 1.548,-0.4762 3.2148,-1.0715 4.4056,-2.143 l 2.8573,-0.119 c 2.3814,-1.7861 8.2157,-4.7628 11.073,-2.9767 l 1.429,-0.8334 2.7385,-0.5955 c -1.4289,1.1908 -1.7861,0.4762 -2.8576,2.6195 l 0.3572,0.119 1.0715,-0.5952 v -0.1191 l 1.1905,-0.8334 -0.2381,0.9525 c -1.5477,0.7143 -3.0954,1.1905 -4.1672,2.5004 -0.8334,0.2381 -1.9049,0.7143 -2.262,1.5477 l -1.1909,0.4762 -0.5953,-0.8333 c 1.548,-0.4763 2.1433,-1.3097 3.3339,-2.2624 l -1.1906,-0.2381 -0.3571,0.5953 c -0.7147,0.2384 -1.429,0.7146 -2.0243,1.1908 l -0.7143,1.1906 -0.9524,0.4762 c -0.3572,0.8334 -1.0718,1.548 -1.548,2.3814 -0.7144,0.2381 -1.5478,0.5953 -2.143,1.1905 -0.3572,0.8334 -0.9528,1.3099 -1.548,2.0243 -1.5478,0.5952 -2.8576,1.9048 -3.4529,3.4528 l 0.5953,0.8334 c -0.4763,1.7858 -2.5002,3.9291 -3.572,5.4768 l -0.119,1.1909 -0.3572,0.3571 -0.9524,-0.119 c -0.3572,-0.4762 -0.8334,-1.1909 -0.9525,-1.7861 -0.119,0.3571 -0.4762,1.0718 -0.3571,1.4289 l -1.0718,0.5953 -0.3572,1.9049 -0.9524,0.8336 -0.5953,1.1906 c -0.5953,-0.1191 -0.9524,0.7143 -0.9524,1.1905 l 0.3571,0.8334 c -0.5953,1.0718 -1.7861,2.2624 -2.1433,3.3339 l -0.4762,0.2381 -2.8576,6.9057 -0.5953,0.8337 c -0.119,1.3096 -0.9524,2.262 -1.0715,3.5719 l 0.5953,0.1191 c -0.4762,1.4287 -0.2381,3.81 -1.667,4.6434 l -0.9525,2.3814 -0.9524,0.4762 c 0,2.143 -1.4287,2.9764 -1.7861,4.8816 0.2384,0.8334 0.2384,1.3096 -0.1191,2.1433 0.3575,0.3571 0.4765,0.8333 0.4765,1.3096 0,1.0715 -0.4765,1.7858 0,2.9766 l -0.4765,1.5477 0.9527,0.4763 0.2382,-1.0715 0.9524,-0.7144 c 0,-0.4762 0.2381,-1.1908 0.7143,-1.4289 l -0.119,1.0718 c 0.119,0.2381 0.4762,1.0715 0.3571,1.3096 l -0.3571,0.9524 0.7143,0.5953 -0.2381,1.1908 0.4762,0.3572 c -0.2381,0.4762 -0.4762,1.3096 0.2384,1.5477 l 0.1191,1.0718 0.5952,0.7143 c 0,0.4762 0,1.0715 -0.2381,1.5477 l 0.9525,2.7386 c 1.1905,1.3096 2.7385,1.6668 3.691,3.3338 l 1.9048,1.0715 c 0.1191,0 5.8343,3.3338 6.0724,3.5719 1.4287,0.4763 2.5005,1.3099 3.9291,1.7862 l 0.9525,-0.1191 c 0.7146,0.3572 1.4289,0.4762 2.1432,0.5953 v 1.1905 h 0.9525 c 0.7143,0 1.4289,-0.119 1.9051,-0.7143 0.3572,-0.1191 0.5953,-0.2381 0.9525,-0.2381 2.1433,0 3.0957,1.0715 5.8343,0.4762 l 1.0714,0.5953 h 0.1191 c 1.6668,-0.5953 4.5244,-1.1906 6.3105,-1.4287 0.5953,-0.3571 1.1905,-0.5953 1.9049,-0.7143 l 0.9524,-0.5956 c 1.7861,-0.2381 3.0957,-1.3096 4.8818,-1.5477 -0.119,0.2381 0.1191,0.7143 0.2381,0.9525 l 0.9525,0.8333 0.119,-0.2381 c 1.0715,-0.4762 2.0243,-1.0715 3.0958,-1.3096 l -4.8816,3.2148 h -1.1908 l -0.1191,0.3572 1.429,0.4762 c 1.3096,-0.8334 3.2147,-2.5005 4.6434,-2.7386 l 0.9524,-0.8334 v -0.119 l 0.9525,-0.2381 0.3574,0.119 1.7859,-1.7858 h 0.7143 l 0.3572,-1.3099 c 0.4762,-0.5953 0.8336,-1.1905 1.1908,-1.9049 l 1.1905,-0.3571 0.4763,-1.1909 c 0.7143,-0.5952 1.548,-0.9524 2.3814,-1.3096 l 0.4762,-1.1905 -0.1191,-0.1191 4.1672,-2.9766 h 1.0715 l 2.5005,-1.1909 -0.5953,0.9527 c -0.7143,0.4763 -1.3099,0.9525 -2.1433,1.1906 l -0.8334,1.4287 -1.0715,0.3574 v 0.9525 l 0.8334,-0.3572 c 0.1191,-0.2381 6.1915,-5.0009 6.5486,-5.12 0.5953,-0.7143 0.9525,-1.7858 1.9049,-2.1429 0.4762,-0.5953 0.9527,-1.1909 1.548,-1.6671 0.1191,-1.0715 1.0715,-1.9049 2.143,-2.143 0.4762,-0.8337 1.0718,-1.548 1.9052,-1.9052 1.5477,-2.8576 3.5719,-2.0239 5.1196,-5.1196 z m -57.2698,-10.1205 0.4763,-1.1906 -0.3572,-0.8337 0.1191,-1.0715 c 0.8333,-2.262 3.2144,-7.2629 4.5243,-8.9297 l -0.4762,-0.119 c 0.4762,-0.5956 1.6668,-1.6671 1.7858,-2.3814 l 0.5953,-0.1191 c 2.1433,-3.2147 8.3347,-9.5252 9.1681,-11.311 l 1.0715,-0.5953 c 0.1191,-0.1191 0.7143,-1.0718 0.9524,-1.0718 2.0243,-0.8334 3.572,-3.4529 5.7153,-4.5244 0.4762,-0.7143 1.0715,-1.1905 1.9051,-1.5477 1.9049,-2.2623 10.0012,-7.501 12.5017,-7.8582 0.2381,-0.2381 0.4762,-0.5956 0.4762,-0.8337 0,-0.2381 0,-0.3571 -0.2381,-0.3571 l -0.7144,0.4762 -1.3098,-0.5953 h -0.8334 c 0.7143,-0.4762 1.3099,-1.0715 1.7861,-1.7858 v -0.1191 l 2.143,-0.7143 c 0.5952,-0.7146 1.548,-1.0718 2.1432,-1.6671 0.7144,-0.2381 1.4287,-0.4762 2.2621,-0.5952 l -0.7143,-0.8334 0.4762,-0.3572 1.548,0.8334 c 0.5953,0 1.3096,-0.1191 1.7858,0.1191 l 0.5953,-0.2382 0.9527,0.7144 1.1906,-0.2381 0.2381,0.8334 0.7143,0.3571 1.1908,-0.2381 3.0958,1.9052 0.9524,-0.2381 c 0.9524,0.7143 1.5477,1.6667 1.9049,2.7382 -0.1191,0.7146 -2.9767,12.502 -4.1672,13.5734 -0.2381,0.8334 -0.2381,2.3814 -1.3096,2.6195 -0.4763,0.7144 -0.8334,1.4287 -1.0718,2.2621 -1.4287,1.7861 -2.7383,4.7628 -4.2863,6.3105 l -0.3572,1.1905 h -0.3571 v 1.0718 c -1.4287,1.4287 -2.8576,3.2148 -3.8101,5.0006 l -0.5952,0.4762 c -0.2382,0.5953 -0.1191,1.1909 -0.7144,1.548 l -1.4289,2.143 -0.5953,0.1191 -0.4762,0.4762 -0.4762,1.3099 -0.7144,0.8334 v 0.9524 l -0.119,0.1191 c -0.3572,-0.1191 -0.8337,-0.1191 -1.3099,-0.1191 -0.9525,0.9527 -2.0239,1.548 -2.8573,2.5005 -0.1191,0.119 -0.2384,0.4762 -0.4765,0.3571 l -0.4763,0.4762 v 0.1191 l -0.7143,0.2381 c -0.5953,0.9527 -1.7858,1.9052 -2.143,2.8576 -0.8336,0.9525 -2.0242,1.548 -2.9766,2.2623 h -0.1191 l -1.9052,1.7859 -0.2381,1.4289 -1.3096,0.3572 v 0.119 l -1.548,0.4763 c 0.4762,-0.3572 0.9527,-0.5953 1.548,-0.7144 l 0.9525,-1.3099 -0.3572,-0.5952 -0.9524,0.9524 -1.0718,0.2381 -1.1906,0.8337 -0.2381,0.9524 -1.3096,0.4762 -0.119,0.1191 c 0.119,0.1191 0.9524,1.3096 1.0714,0.5953 l 0.4763,0.3571 -2.0243,0.8337 -0.119,-0.8337 -1.1906,-0.119 -0.5952,0.4762 c 0.119,0.2384 -0.3572,0.7146 -0.5953,0.4765 l -1.1908,-0.5956 -0.5953,1.3099 c 0.119,0.5953 0.119,1.5478 -0.2381,2.143 l -0.7144,-0.2381 c -1.9051,0.7144 -1.0715,1.0718 -3.4528,1.0718 h -0.8334 c -0.5953,0.8334 -1.6671,0.2381 -2.3814,0.8334 -1.0715,-0.2381 -2.2621,-0.1191 -3.3338,-0.3572 -0.8334,-0.8336 -1.4287,-1.1908 -2.5002,-1.548 h -0.1191 l -0.7146,0.3572 h -0.7143 l -0.3572,-0.4762 -1.1905,-0.5953 H 681.08 l -0.5952,-1.0715 -0.2384,-2.1433 0.4765,1.0718 c 0.4762,0.4762 0.8334,1.0715 1.5477,1.3096 v -1.1905 h -0.1191 l -0.8334,-1.1909 0.2382,-1.6668 -0.3572,-0.119 0.3572,-2.3814 -0.5953,-1.0715 v -0.2381 c 1.3096,-1.7861 1.7858,-4.2863 2.143,-6.4295 z m 52.8645,12.1444 c -1.3096,0.8337 -1.7861,2.3814 -3.0957,3.2148 l 0.119,0.8334 -1.1905,0.2381 v 0.1191 l -1.0715,1.9051 v -0.3571 l -1.6671,1.9048 c -0.9524,0.3575 -1.0715,1.9052 -2.2623,1.9052 h -0.1191 l 0.1191,-1.9052 c -0.8334,1.0718 -2.143,2.2624 -3.3335,2.7386 l -1.0718,0.119 c -0.4762,0.5953 -0.8334,1.1909 -1.6668,1.1909 l -1.4289,0.7143 1.0717,-0.8334 h 0.2381 l 2.024,-2.3814 c 0.5955,-0.3571 1.0718,-0.7143 1.7861,-0.8334 0.7143,-0.4765 1.9049,-1.7861 2.262,-2.5004 1.0718,-0.4762 1.9052,-1.4287 2.9767,-1.7861 l 3.3338,-4.2863 0.1191,-0.2381 1.1908,-0.2381 c 0,-0.7143 0.1191,-1.4287 0.3572,-2.143 0.2381,0.1191 0.5953,0.2381 0.8334,0.2381 0.2381,0 0.5952,-0.119 0.5952,-0.4762 l 0.7144,-0.5956 c -0.2381,1.1909 -0.4762,2.2624 -0.8334,3.4529 z m -26.7894,18.574 h 1.5477 l -0.119,0.7147 c -2.2624,0.9524 -5.1197,2.8573 -7.5011,3.3335 0.5953,-0.3572 1.0715,-1.0715 1.3096,-1.7858 l 0.9528,0.119 1.0715,-0.8334 h 0.119 l 0.5953,-0.7143 h 0.4762 c 0.5953,0 1.1908,-0.3574 1.548,-0.8337 z m -9.2871,7.0249 -1.6668,1.0717 -1.1909,0.1191 -0.4762,0.8334 c -0.7143,0.119 -1.4286,0.2381 -1.9049,0.8334 l -1.0717,0.5952 0.3574,0.9525 c 0.5953,-0.5953 1.3096,-1.1906 2.024,-1.6668 1.4286,0 2.8576,-0.8334 4.0481,-1.4286 l 0.5953,-0.7147 z m -42.7442,-32.7427 0.3574,0.7146 c 0,0.5952 -0.3574,1.1905 -0.7146,1.6667 0.1191,0.8334 -0.5953,2.3814 -0.8334,3.2148 l 0.5953,1.1906 -0.5953,1.667 -0.2381,-1.0718 -0.8334,-0.5952 0.7143,-0.7144 c 0.2382,-1.6667 0.7144,-4.6434 1.5478,-6.0723 z m 84.1785,-26.6704 0.3574,0.1191 c -1.3099,2.2623 -3.2148,4.1672 -4.4056,6.4295 l -0.4762,-0.7143 c 0.4762,-0.7146 1.0718,-1.3099 1.667,-1.9052 l -0.119,-0.5953 c 0.4762,-0.2381 1.0715,-0.7143 1.5477,-0.7143 0.119,-0.9524 0.3572,-2.3814 1.4287,-2.6195 z m -51.793,63.5803 -0.9524,0.9527 -0.8334,-0.4762 c -0.3572,0 -0.8334,0.119 -1.3099,0.119 l -0.3572,0.8334 c 0.9528,0.1191 1.9052,0.1191 2.8576,0.3572 l 1.1906,-0.5953 -0.4762,-1.1908 z m 2.8576,-90.1316 c 1.3096,-0.4762 2.7386,-0.8333 4.1672,-0.8333 l 1.548,0.119 -0.4762,0.4762 c -1.0718,0.1191 -2.1433,0.4763 -3.4529,0.4763 -0.5955,0 -1.1908,-0.1191 -1.7861,-0.2382 z m 47.5067,11.4302 0.8334,0.9524 -0.2381,1.1909 -0.5953,0.9524 c -0.1191,0.7143 -0.2381,1.4287 -0.5953,2.143 l -0.119,-1.1906 c 0,-1.3096 0.4762,-2.7385 0.7143,-4.0481 z m 0.119,42.387 c 0,-0.2384 0.2382,-1.3099 0.5953,-1.4289 l 0.5953,-1.5477 0.5956,-0.3572 0.4762,-0.5956 0.2381,-0.8334 0.9524,0.1191 -0.5952,1.0718 c -0.8334,0.2381 -1.6671,2.8573 -2.8577,3.5719 z m 7.8583,-11.4304 c -0.2382,1.4289 -0.5953,3.0957 -1.6668,4.0481 v -1.3096 c 0,-0.3571 0.2381,-0.8333 0.3571,-1.0715 z m -77.868,-18.3359 1.1905,-0.2381 v -0.2381 l 0.5953,-1.4287 -0.5953,-0.9524 c -0.2381,1.0715 -0.8334,1.9048 -1.1905,2.8573 z m -1.0715,32.2665 0.8333,0.119 -0.3571,0.7144 0.4762,1.1908 -0.5953,0.8334 v 0.4762 l -0.5953,-0.9524 0.3572,-1.0715 z m 68.1046,-52.2692 -0.5953,1.0715 v 1.0718 c 0.5953,-0.2384 1.3096,-0.8337 1.6671,-1.3099 z m -82.8686,65.0092 -0.1191,1.1906 0.1191,0.8333 0.8334,0.9525 h 0.119 c -0.119,-0.5953 -0.2381,-1.3096 0,-1.9049 z m 15.9545,-41.4346 0.8334,0.2381 c -0.4762,0.7146 -0.8334,1.429 -1.1906,2.1433 v 0.1191 l -0.8333,-0.3572 c 0.4762,-0.4762 1.1905,-1.5477 1.1905,-2.1433 z m 59.7702,32.1475 0.9527,0.119 -0.4765,0.5953 -0.3571,1.1908 h -0.3572 l -0.5953,-0.3571 0.7144,-0.9528 z m 3.3338,-30.3614 0.2381,-1.1905 0.1191,0.4762 c -0.2381,0.7143 -0.3572,1.4287 -0.7143,2.0239 l -0.4762,0.2381 -0.2382,0.4763 -0.2381,-0.7144 0.5953,-0.8334 z m -34.8857,53.9362 1.7859,0.1191 -0.2381,0.4762 c -0.3572,0 -0.8334,0.1191 -1.3097,0.1191 l -0.9524,0.5953 z m -36.6718,-70.9625 -1.1908,0.4763 c -0.1191,0.3571 -0.3572,0.9527 -0.2381,1.3098 0.7146,-0.4762 1.3099,-0.9527 1.4289,-1.7861 z m 47.5067,38.3389 0.2381,1.0715 h 1.1906 c -0.2381,-0.4762 -0.4763,-1.0715 -1.1906,-1.0715 z m 11.9064,22.8603 -1.0715,0.8334 v 0.9524 c 0.4762,-0.3572 1.0715,-0.7143 1.0715,-1.4287 z m -18.0978,6.1914 0.5952,-0.2381 -0.7143,0.5953 -2.1433,0.4762 c 0.4763,-0.4762 1.3099,-0.8334 1.9052,-0.9524 z m -33.4571,-27.1468 c -0.2381,0.4762 -0.5952,0.9524 -1.0715,1.1908 l 0.3572,0.4762 -0.9527,-0.3571 c 0.3571,-0.4765 1.0718,-1.1909 1.667,-1.3099 z m 46.7924,-2.143 c -0.4765,0.3572 -0.9527,0.7143 -1.1909,1.1905 l -0.3571,-0.9524 c 0.3571,-0.1191 0.8334,-0.2381 1.1908,-0.2381 z m 11.4301,-4.5247 0.4762,0.2381 c -0.2381,0.2381 -0.3571,0.7146 -0.7143,0.9528 l -0.5953,-0.4763 z m -48.9356,8.3347 0.4765,0.8334 -0.2384,1.0715 -0.4762,-0.7143 z m -7.501,3.8101 0.4762,1.0715 -0.1191,0.8334 -0.5953,-1.1906 z m 36.9099,19.0502 0.5955,0.9525 -0.8336,0.4762 0.119,-1.1906 z m 9.8824,-28.6945 0.1191,1.0715 -0.9525,1.1908 z m -40.72,-31.6712 h 0.2381 l -0.8333,0.9527 -0.4763,-0.4762 z m 52.2692,17.1453 c 0.5953,-0.4762 1.3099,-1.0715 1.7861,-1.6668 l -0.5953,1.1906 z m 7.7392,-13.8115 0.3571,0.3571 -0.119,0.8337 -0.4763,-0.119 z m -32.7428,58.9368 0.9528,-0.3572 h 0.8334 l -1.3097,0.4763 z m -22.7412,-66.5569 0.9525,0.8334 h -0.7144 z m -12.6207,37.6242 c 0.1191,0.4765 0.1191,1.1909 0,1.6671 l -0.2381,-0.7143 z m 76.2012,-2.7382 0.4763,1.3096 -0.2381,0.4762 z m -85.6074,24.527 -0.2381,-0.4762 0.7143,0.7146 z m 111.206,-23.4555 c 0,0.8334 -0.4762,1.5477 -0.4762,2.3814 -1.1906,0 -0.8334,0.4762 -0.8334,1.4286 0,0.8334 -1.7858,2.5005 -1.7858,3.4529 0,0.3572 0.2381,0.4762 0.4762,0.4762 0.8334,0 1.3096,-1.3096 1.3096,-2.0239 0.8334,-1.3099 1.667,-2.3814 2.3814,-3.8101 0.3571,0 0.3571,-0.2384 0.3571,-0.5955 0,-0.2381 0.2382,-0.3572 0.4763,-0.3572 0,-0.3572 0.119,-0.9524 0.4762,-1.1905 l 0.3572,-1.0715 c 0.5952,0 0.8333,-0.4763 0.7143,-0.9528 0.4765,0.5956 1.3099,2.2624 2.3814,2.2624 0.4762,0 0.9524,-0.3572 0.8334,-0.8334 0.119,-0.1191 0.2381,-0.4762 0.4762,-0.4762 0.119,0 0.119,0.3571 0.119,0.3571 v 2.024 l -0.5952,0.8336 c -0.3572,0 -0.2382,0.2381 -0.2382,0.5953 0,0.2381 -0.2381,0.2381 -0.4762,0.2381 0,0.9525 -0.4762,1.9049 -0.4762,2.8576 -0.7143,0.9525 -0.9524,2.2621 -0.8334,3.3336 l -0.4762,0.3574 c -0.3575,0.1191 -0.4765,0.5953 -0.4765,0.9525 0,0.4762 0,0.7143 0.4765,0.7143 0.5953,0 1.0715,-0.1191 1.0715,-0.8334 0,-0.5953 0.3572,-2.3814 1.1905,-2.3814 0.3572,-0.7143 1.7862,-2.6195 1.7862,-3.5719 0.4762,0 0.4762,-0.2381 0.4762,-0.5953 0,-0.4762 1.4286,-0.5953 1.7858,-0.5953 0,-0.7143 1.6671,-5.0009 2.3814,-4.8815 v -1.1909 c 0.3572,-0.9524 0.7143,-1.9048 1.3096,-2.7385 0,-0.4762 0.3572,-0.7143 0.8337,-0.5953 l 0.119,-1.7858 0.8334,-0.3572 c 0.4762,0 0.4762,-0.2381 0.4762,-0.5952 0,-0.2384 0.1191,-0.3575 0.3572,-0.3575 l 0.119,-0.9524 0.4763,-0.3572 c 0.3571,-0.4762 0.7143,-0.9524 0.8334,-1.5477 l 0.4765,-0.3572 1.3096,-2.2623 0.5952,1.3096 c -0.8333,0.8337 -1.4286,2.1433 -1.9048,3.2148 l -0.4765,0.3571 v 0.8337 l 0.4765,0.4762 -0.4765,0.4762 -0.2382,1.5478 -0.5952,0.7143 v 2.8576 l -0.4763,1.0715 c 0,0.119 0,0.4765 0.1191,0.4765 0.1191,0 0.2381,-0.4765 0.3572,-0.5956 0.7143,0 0.4762,-2.262 1.1908,-2.262 0.2381,-0.7143 0.5953,-1.548 0.5953,-2.2623 1.0715,0 0,-2.2621 1.4286,-2.2621 l 0.8334,-2.2623 c 0.9527,0 0.9527,-2.1433 0.9527,-2.7386 l 0.8334,-0.7143 c 0,-0.3572 0.1191,-0.8334 0.4763,-0.9524 0,-0.7144 0.3571,-1.429 0.9524,-1.9052 0,-1.6668 1.3099,-3.0957 1.3099,-4.7625 l 0.4762,-0.5953 c 0,-0.2381 -0.1191,-1.548 0.2381,-1.548 0.2381,0 0.2381,0.4762 0.2381,0.5956 0,0.8334 0.4762,0.119 0.5953,-0.1194 l 0.3572,1.1909 c -0.2381,0.3571 -0.4763,0.8334 -0.8334,1.0715 -0.7144,0 -0.5953,0.3571 -0.5953,0.9524 0,0.9527 -0.8337,1.6671 -0.8337,2.6195 0.3575,0.3572 0.9528,0.8334 1.548,0.8334 0.1191,0 0.2381,-0.1191 0.2381,-0.3572 -0.2381,-0.119 -0.9524,-0.4762 -0.9524,-0.8334 0,-0.119 0.3572,-0.119 0.4762,-0.119 0,-1.5477 1.9049,-3.691 1.9049,-5.8343 0.3572,0 0.4762,-0.119 0.4762,-0.4762 l -0.119,-0.8334 -0.8334,-0.119 v -0.8334 l 0.4762,-0.3572 v -0.8337 c 0.2381,-0.3571 0.3572,-0.8333 0.3572,-1.1905 -0.2381,-0.1191 -0.9525,-0.4762 -0.9525,-0.7143 0,-0.1191 0.3572,-0.1191 0.4763,-0.1191 0.3571,-1.0715 0.9527,-2.1433 1.4289,-3.2148 0,-0.7143 0.4762,-1.7861 1.3096,-1.7861 0,-0.7143 -0.4762,-2.8573 0.9524,-2.5001 0,-0.7144 0.4763,-0.5953 0.4763,-1.1909 0.3574,-0.7143 0.9527,-1.4286 0.9527,-2.262 l 0.3572,0.119 c 0.3571,0 0.4762,-0.2381 0.4762,-0.4762 -0.2381,-0.2381 -0.8334,-0.5953 -0.8334,-0.9524 0,-0.1194 0.2381,-0.1194 0.3572,-0.1194 0.8333,-0.8333 1.5477,-2.0239 2.1429,-3.0954 0.1191,-0.4765 0.3572,-1.7861 0.9528,-1.9052 0.119,-0.8333 -0.2381,-2.7385 1.0715,-2.3813 0.4762,-2.024 1.3096,-3.9291 1.7858,-5.9531 0.3574,-0.2381 0.4765,-0.8334 0.4765,-1.1905 0.4762,0 0.4762,-0.2384 0.4762,-0.5956 0,-0.2381 0.1191,-0.3572 0.3572,-0.3572 l 0.9524,-2.3811 c 0,-0.8336 1.4287,-1.1908 1.4287,-2.1432 0.3574,-0.2381 0.4765,-0.8334 0.4765,-1.3096 0,-0.4763 -0.3575,-0.7147 -0.8337,-0.7147 -0.3571,0 -0.7143,0.1191 -1.0715,0.2384 0,0.9525 0,2.6193 -0.8334,2.6193 -0.119,0 -0.4762,-0.9525 -0.4762,-1.0715 0,-1.0715 0.8334,-1.9052 0.8334,-2.9767 l 0.9524,-2.143 -0.8333,-1.0718 c -0.5953,0 -0.3572,0.4762 -0.9525,0.4762 -0.3571,-0.2381 -0.4762,-0.8333 -0.4762,-1.3096 l -1.1908,-0.4762 c -0.4763,1.1906 -1.1906,2.143 -1.9049,3.2148 l -0.9527,0.4762 c -1.5478,0 0.7146,-1.4287 -3.691,-1.4287 v -0.4765 c 0,-0.8333 -2.9764,-0.8333 -3.8101,-0.9524 -1.3096,-0.2381 -0.119,-1.6668 -1.5477,-1.6668 -3.81,0 -1.0715,1.6668 -3.5719,1.6668 l -0.7144,0.9524 c -0.7143,0 -0.7143,1.9052 -1.7861,1.9052 0,0.9524 -0.8334,1.3096 -0.8334,2.2623 -0.3571,0.3572 -0.8333,0.4763 -1.3096,0.4763 l -0.119,1.4286 c -0.4762,0.4762 -0.9527,1.1906 -1.3099,1.7861 0,0.5953 -0.1191,2.143 -0.9525,2.143 0,0.7144 -0.4762,0.9525 -0.4762,1.548 -0.3571,0.1191 -0.4762,0.4762 -0.4762,0.8334 -0.3572,0 -0.4762,0.1191 -0.4762,0.4762 0,0.3572 -0.2381,0.3572 -0.4762,0.3572 0,0.3572 -0.1191,0.9524 -0.3575,1.1905 0,1.0718 -0.9524,1.7862 -0.9524,2.8577 l -0.3572,0.7143 -0.4762,0.2381 c 0,0.4762 -0.1191,1.0718 -0.4762,1.3099 0,0.9524 -1.429,2.3811 -1.429,3.3338 -0.2381,0.7143 -0.8334,1.4287 -1.3096,2.0239 0,0.4763 -0.4762,0.7144 -0.4762,1.1909 l -0.9524,2.143 c 0,1.4286 -1.548,5.358 -2.2624,6.4295 0,0.4762 -0.4762,0.7143 -0.4762,1.1906 -0.5953,0.5952 -1.0715,1.4289 -1.3096,2.2623 0,0.5953 -0.1191,2.0239 -0.9527,2.0239 0,0.8337 -0.4762,0.7146 -0.4762,1.3099 -0.4763,0 -0.3572,0.2381 -0.3572,0.5953 0,0.2381 -0.1191,0.3572 -0.3572,0.3572 -0.2381,0.9524 -0.8334,2.7385 -1.5477,3.4528 0,0.3572 -0.1191,0.8334 -0.4765,0.9525 -0.5953,0.4762 -0.3572,1.1905 -0.3572,1.9052 0,0.3571 -0.2381,0.4762 -0.5952,0.4762 l -0.8334,2.143 c 0,0.3571 -0.1191,0.8336 -0.4762,1.0717 -0.2382,1.7859 -1.548,3.3339 -1.548,5.1197 l -0.7144,0.5953 v 2.2623 c -0.3571,0.2381 -0.8334,3.3338 -0.8334,4.0482 -0.3571,0.3571 -0.4762,0.8333 -0.4762,1.3096 -0.5953,0 -0.5953,0.7146 -0.4762,1.0717 -1.548,2.6193 -3.0957,5.2388 -4.1672,8.0964 0,0.8333 -0.4765,1.4286 -0.4765,2.262 -0.3572,0.2384 -0.4762,0.7146 -0.4762,1.0718 l -0.3572,0.8334 c 0,0.3571 0.119,0.8334 0.4762,0.8334 0.4765,0 1.7861,-3.0958 1.7861,-3.691 h 0.2381 c 0.4763,0 0.7144,-0.2381 0.7144,-0.7144 1.1905,-1.3096 1.667,-3.691 2.7385,-5.2387 0.4762,0 0.3572,-0.2384 0.3572,-0.5955 0,-0.2381 0.119,-0.3572 0.3571,-0.3572 0.1191,-0.119 0.3572,-1.0715 0.5953,-1.0715 v 0.9525 c 0,0.3571 -0.119,0.5952 -0.4762,0.5952 0,0.3575 -0.1191,0.9528 -0.3572,1.1909 l -0.9524,2.262 v 0.8337 c 0,0.3571 -0.1191,0.7143 -0.4762,0.7143 l -0.4765,1.0715 c -0.7144,0.3572 -0.2381,1.548 -0.9525,1.9052 v 2.0239 c 0.8334,0 0.9525,0 0.9525,-0.8334 0.8336,0 0.1193,-0.9524 0.9527,-0.9524 0,-0.5953 1.1905,-2.7386 1.6668,-2.7386 l 1.0715,-2.2623 c 0.8336,0 1.3099,-0.4762 1.3099,-1.3096 0.5952,-0.8334 1.1905,-1.9052 1.4286,-2.9767 z m 4.6437,38.9341 c 0,0.1191 0,0.2381 0.1191,0.2381 0.2381,0 1.0715,-1.3099 1.1905,-1.548 0,-0.8334 0.4762,-1.4286 0.4762,-2.262 l 0.4763,-0.5953 c 0,-0.8337 0.3571,-1.3099 0.3571,-1.9052 l 0.4765,-0.2381 c 0,-0.2381 0.4763,-2.8576 0.4763,-1.667 l 1.4286,-0.1191 -0.8334,-0.7143 -0.119,-0.3572 c 0,-0.7143 0.9524,-0.119 0.9524,-1.1905 v -0.3572 l -0.9524,-0.8334 v 0.5953 l -0.4762,0.3572 c 0,0.119 -0.1191,0.3571 -0.2382,0.3571 -0.119,0 -0.2381,-0.8334 -0.2381,-0.9524 0,-0.3572 1.1906,-3.2148 1.3096,-3.572 -0.8333,-0.9527 -0.9524,-3.5719 -2.7385,-3.5719 -0.2381,-0.3572 -0.7143,-0.4762 -1.0715,-0.4762 l -0.8334,0.4762 -1.1908,-0.3572 -0.8334,0.3572 c 0,-0.3572 -0.2381,-0.5956 -0.5953,-0.5956 -0.5953,0 -1.3096,0.3575 -1.7861,0.5956 -0.4762,0 -0.4762,0.2381 -0.4762,0.5953 0,0.2381 -0.1191,0.3571 -0.3572,0.3571 -1.0715,-0.5952 -2.143,-0.9524 -3.2148,-1.4286 -0.3571,-0.3575 -0.8333,-0.4765 -1.3096,-0.4765 l -0.9524,-0.4762 c 0,1.3098 -1.7861,1.3098 -2.6195,1.4289 l -0.1191,-1.4289 c -0.7143,0 -0.8333,-0.4763 -1.4286,-0.4763 -0.2381,-0.2381 -0.4765,-0.3571 -0.8337,-0.3571 -0.119,0 -0.119,0.119 -0.119,0.2381 0,0.4762 -0.3572,0.8334 -0.3572,1.3096 l -1.4287,0.2384 c 0,1.9049 -2.2623,2.5001 -2.7385,4.2862 -1.0715,0.5953 -3.9291,5.4769 -4.5244,6.9058 0,1.0715 -1.3096,2.5002 -1.3096,3.691 l -0.4765,0.3572 v 0.9524 c -0.7143,1.4287 -1.3096,2.8576 -1.9049,4.2863 0,0.7143 -0.3572,0.8334 -0.3572,1.3096 -0.7143,0 -0.4762,0.9527 -0.4762,1.4289 l -0.9527,2.143 c 0,0.4765 -0.4762,0.7146 -0.4762,1.1909 0,0.119 0,0.8333 0.2381,0.8333 0.2381,0 0.2381,-0.4762 0.2381,-0.5952 l 1.1908,-0.3572 0.5953,-1.3099 c 0,-0.9524 0.9525,-1.4286 0.9525,-2.3811 0.119,-0.119 1.9051,-1.9052 1.9051,-0.9527 h 0.8334 v -0.8334 l 0.8334,-0.4762 c 1.4286,0 0.5953,-1.3096 1.4286,-1.3096 0,-0.8334 1.1909,-0.4762 1.6671,-0.4762 l 0.5953,-0.8337 0.119,0.8337 c -0.2381,0.3571 -0.9524,1.9048 -0.9524,2.262 0,0.8334 0.3572,1.4289 0.3572,2.2623 0.119,0.1191 0.2381,0.3572 0.3571,0.3572 0.1191,0 0.1191,-0.2381 0.1191,-0.3572 l 0.4762,-0.9524 c 0,-1.0718 0.9524,-1.6671 0.9524,-2.6195 0.9528,0 0.9528,-1.4287 2.0243,-1.4287 l 2.5004,0.9525 c 0.1191,-0.1191 0.2381,-0.2381 0.3572,-0.2381 0.3571,0 0.7143,0.7143 1.5477,0.7143 0.2381,-0.5953 0.9527,-1.9052 1.667,-1.9052 -0.3571,0.5956 -0.9527,1.6671 -0.9527,2.3814 0,0.3572 2.6195,0.8334 3.0957,0.8334 0.1191,-0.3572 0.5953,-0.4762 0.9528,-0.4762 v -0.1191 c 0,-0.4762 0.4762,-0.7143 0.9524,-0.7143 -0.2381,0.5953 -0.7143,2.2623 -1.1908,2.6195 v 0.8334 c -0.2381,0.119 -0.5953,0.4762 -0.5953,0.7143 0,0.2381 0.119,0.4762 0.3572,0.4762 0.7146,0 1.3098,-1.1905 1.548,-1.7858 0.5952,-0.3572 1.4286,-0.9527 1.4286,-1.6671 0,-0.119 0,-0.8333 0.1191,-0.8333 0.119,0 0.2381,1.3096 0.2381,1.4286 0.5953,0 1.1908,-0.3571 1.1908,-0.9524 h 1.5477 c 0,-0.4762 0.1191,-2.2621 0.8334,-2.2621 1.3099,-2.7385 2.5005,-5.7152 3.8101,-8.4537 l 0.8336,-0.5953 c -0.3574,0.9524 -1.0717,2.8576 -1.7861,3.5719 0,0.3572 -0.119,0.9525 -0.4762,1.1906 l -0.8334,2.0242 z m 18.574,-62.9853 c -0.2381,0.2384 -0.4762,0.4766 -0.8334,0.4766 l -0.4765,-0.1191 c 0.1191,-0.2381 1.3099,-3.0957 1.3099,-3.3338 l 0.9525,-1.1909 c 0,-0.7143 0.4762,-0.3571 0.7143,0 l 0.2381,-1.3096 0.8337,1.1906 c 0,0.2381 0.119,0.7146 0.4762,0.5953 -0.3572,0.2383 -0.4762,0.8336 -0.4762,1.1908 0,0.119 0,0.5953 -0.1191,0.5953 -0.2384,0 -0.3574,-0.3572 -0.4765,-0.4763 l -1.1905,-0.119 c 0,0.2381 0.4762,1.4287 0.8334,1.4287 l 0.2381,-0.3572 -0.1191,1.667 h -0.3572 c -0.2381,0 -0.5952,0.1191 -0.5952,0.4763 l 0.4762,1.0715 c -0.5953,0 -0.3572,0.4762 -0.9524,0.4762 0,0.7143 0,1.7861 -0.9525,1.7861 -0.2381,0 -0.8337,0 -0.8337,-0.3575 l 0.8337,-1.1905 c 0,-0.8334 0.4762,-1.6668 0.4762,-2.5005 z m -1.3099,15.3596 -0.4762,0.5953 c 0,0.5952 -0.3571,1.1905 -0.8334,1.5477 0,0.5952 -0.4762,0.9527 -0.4762,1.667 l 0.3572,0.8334 h 0.9524 l 0.9527,-1.667 c 0,-1.1906 0.8334,-2.5002 0.8334,-3.5717 l -1.3099,-0.7146 z m 5.4771,-28.5755 0.9525,0.5953 c -0.2381,0.3571 -0.4762,0.8333 -0.4762,1.3096 -0.5953,0.5955 -0.3572,1.4289 -0.3572,2.2623 l -0.4762,0.8334 c -0.2381,0 -1.0715,0 -0.9525,-0.4762 0.3572,-1.5478 0.7144,-2.9767 1.3096,-4.5244 z m -14.0496,35.0047 v 0.4765 c 0,0.5953 0.4762,0.4763 0.8334,0.4763 v 1.3096 c 0.4762,0 0.8337,0.8334 1.0718,0.8334 0.7143,0 0.7143,-1.1906 0.7143,-1.7859 0,-0.7143 -0.4762,-0.7143 -0.4762,-1.3099 -0.5953,0 -0.8337,0.4765 -1.3099,0.4765 z m 6.7867,-19.8836 0.9525,0.9525 -0.9525,1.1908 -0.119,2.7383 -1.0715,-1.4287 c -0.1191,0 -0.2381,0 -0.2381,-0.2381 0,-0.2381 0.2381,-0.5953 0.4762,-0.8334 0,-0.9527 0.9524,-1.4289 0.9524,-2.3814 z m -18.2168,51.912 0.8334,0.3572 v 1.667 c -0.1191,0.1191 -0.4763,0.2381 -0.4763,0.4763 0,0.2381 0.4763,0 0.4763,0.3571 0,0.2381 -0.2382,0.4762 -0.3572,0.5953 0,0.119 0,0.3572 -0.1191,0.3572 -0.2381,0 -0.7143,-1.3096 -0.8334,-1.5478 0,-0.8333 0.4763,-1.4289 0.4763,-2.2623 z m 27.2656,-73.4627 0.9527,0.4763 v 0.9527 l -0.9527,1.6668 -0.3572,0.119 c -0.2381,0 -0.4762,-0.119 -0.4762,-0.4762 v -0.9525 c 0.9524,0 0.8334,-1.0717 0.8334,-1.7861 z m -25.4798,34.1714 0.4765,0.9527 -0.9527,0.7144 v 1.3096 l -0.4762,0.9527 -0.3572,-0.3575 v -1.7858 c 0,-1.0715 1.3096,-1.4286 1.3096,-1.7861 z m 0.9527,35.9575 c 0.2381,0.119 0.8334,0.5953 0.8334,0.7143 0,0.2384 -0.2381,0.2384 -0.3572,0.2384 0,2.0239 -0.4762,1.0715 -0.4762,1.7858 h -0.3571 c -0.2382,0 -0.5956,-0.119 -0.5956,-0.4762 0,-0.5953 0.7146,-1.7861 0.9527,-2.2623 z m -4.6437,-27.6228 0.9527,-0.8337 c 0,-0.5952 0.4762,-0.7143 0.4762,-1.3096 0.1191,-0.2381 0.4763,-0.5952 0.7144,-0.5952 0.2381,0 0.2381,0.2381 0.2381,0.3571 -0.8334,0 -0.4762,1.1906 -0.4762,1.6671 l -1.3096,1.0715 v 0.2381 c 0,0.3572 -0.2382,0.5953 -0.5956,0.5953 z m -1.3096,44.7681 -0.4762,0.4763 c 0,0.119 0.2381,0.5952 0.3571,0.5952 0.1191,0 0.1191,-0.2381 0.1191,-0.2381 l 0.8334,-0.3571 0.4762,-0.5953 v -0.9525 l -1.3096,-0.119 z m 13.2162,-43.1013 c 0,0.4762 -0.119,0.8334 -0.4762,1.1905 l 0.9525,0.7147 c 0,-0.4763 0.4762,-0.9528 0.4762,-1.429 -0.1191,-0.3572 -0.5953,-0.4762 -0.9525,-0.4762 z m 11.7874,-13.9306 c 0,0 0,0.2381 0.119,0.2381 0,0 0.3572,-0.7143 0.3572,-0.8334 0.119,0 0.8334,0 0.8334,-0.2381 0,-0.5953 -0.9525,-0.7143 -1.3096,-0.7143 z m -12.2636,35.3622 -0.4765,1.0715 0.4765,0.9527 v 0.2381 c 0.2381,0 0.4762,-1.3099 0.4762,-1.667 0,-0.2381 -0.119,-0.5953 -0.4762,-0.5953 z m 12.7398,-47.3876 c -0.8334,0 -0.9525,0.8334 -0.9525,1.4286 0.7144,0 0.9525,-0.8333 0.9525,-1.4286 z m -5.9533,9.6443 0.9527,-0.1191 v 0.9525 h -0.3572 c -0.5955,0 -0.5955,-0.3572 -0.5955,-0.8334 z m -13.097,40.6009 1.3096,0.8334 c -0.4762,0 -0.4762,0.4762 -1.0715,0.4762 z m -5.1199,13.216 0.4765,0.7146 v 0.9524 l -0.4765,-0.4762 z m 4.1675,-48.3401 c 0.1191,0 0.1191,-0.119 0.2381,-0.119 0.1191,0 0.2381,0.119 0.2381,0.2381 0,0.119 0,0.3571 -0.2381,0.3571 -0.119,0 -0.2381,-0.3571 -0.2381,-0.4762 z m 23.2174,-16.4307 0.4763,0.8334 c -0.2381,0 -0.4763,-0.1191 -0.4763,-0.3572 z m -0.4762,1.4286 c 0.1191,0 0.2381,-0.119 0.2381,-0.119 0.1191,0 0.2381,0.119 0.2381,0.2381 0,0.1191 -0.119,0.2381 -0.2381,0.2381 -0.119,0 -0.2381,-0.2381 -0.2381,-0.3572 z m -26.4322,62.3897 0.4762,0.1191 c 0,0.1191 0,0.3572 -0.2381,0.3572 -0.119,0 -0.2381,-0.3572 -0.2381,-0.4763 z m -10.0015,0.9525 0.4762,0.119 c 0,0.1191 0,0.3575 -0.2381,0.3575 -0.119,0 -0.2381,-0.3575 -0.2381,-0.4765 z m 35.9575,-66.5569 0.4762,0.119 c 0,0.1191 0,0.3572 -0.2381,0.3572 -0.119,0 -0.2381,-0.3572 -0.2381,-0.4762 z m 1.9049,-5.0006 h 0.119 c 0.2382,0 0.3572,0 0.3572,0.2381 h -0.119 c -0.2382,0 -0.3572,0 -0.3572,-0.2381 z m -10.9539,18.693 h 0.119 c 0.2381,0 0.3572,0 0.3572,0.2382 h -0.1191 c -0.2381,0 -0.3571,0 -0.3571,-0.2382 z"
         style="fill:#000200;fill-rule:evenodd"
         id="path22"
         inkscape:connector-curvature="0" />
    </g>
  </g>
</svg>
